<?xml version="1.0" encoding="UTF-8" ?>
<!DOCTYPE svg PUBLIC "-//W3C//DTD SVG 1.1//EN" "http://www.w3.org/Graphics/SVG/1.1/DTD/svg11.dtd">
<svg width="128pt" height="128pt" viewBox="0 0 128 128" version="1.1" xmlns="http://www.w3.org/2000/svg">
<g id="#019ca8ff">
<path fill="#019ca8" opacity="1.00" d=" M 83.81 19.80 C 86.08 18.40 88.22 16.54 90.89 15.99 C 92.91 16.23 93.89 18.03 93.80 19.93 C 93.98 27.33 93.76 34.74 93.86 42.15 C 99.90 44.04 104.96 49.49 104.77 56.08 C 105.03 62.75 99.94 68.30 93.83 70.25 C 93.64 78.07 94.15 85.93 93.60 93.74 C 93.13 96.92 89.07 96.88 87.57 94.44 C 74.96 80.72 55.26 77.29 37.44 77.82 C 41.27 87.20 45.18 96.54 49.03 105.91 C 49.91 107.87 50.42 111.08 47.74 111.83 C 45.22 112.66 43.72 110.04 42.99 108.08 C 38.86 97.99 34.68 87.93 30.54 77.84 C 23.56 77.51 15.96 79.07 9.54 75.55 C 3.85 72.55 0.27 66.38 0.00 60.01 L 0.00 52.66 C 0.00 43.57 7.48 35.22 16.62 34.64 C 27.41 34.05 38.25 34.99 49.04 34.09 C 61.69 32.60 73.29 26.69 83.81 19.80 M 55.58 39.47 C 49.13 41.08 42.44 40.86 35.85 40.88 C 35.84 51.07 35.85 61.25 35.85 71.43 C 43.92 71.40 52.07 71.42 60.02 73.04 C 69.97 74.94 79.43 79.27 87.43 85.47 C 87.44 65.38 87.44 45.28 87.43 25.19 C 77.53 31.31 67.14 37.22 55.58 39.47 M 15.50 41.40 C 10.50 42.42 6.79 47.13 6.55 52.17 C 6.20 57.54 5.83 63.91 10.05 67.98 C 15.23 72.96 23.00 71.07 29.47 71.43 C 29.47 61.25 29.47 51.07 29.47 40.89 C 24.82 41.02 20.09 40.45 15.50 41.40 M 93.89 48.79 C 93.82 53.71 93.81 58.63 93.91 63.56 C 96.73 61.70 99.10 58.56 98.39 54.99 C 98.13 52.22 95.94 50.36 93.89 48.79 Z" />
<path fill="#019ca8" opacity="1.00" d=" M 121.48 37.50 C 124.41 35.81 127.65 39.93 125.36 42.38 C 122.38 44.47 118.70 45.24 115.41 46.74 C 113.44 47.34 111.33 48.87 109.25 47.80 C 107.25 46.69 107.17 43.21 109.38 42.31 C 113.33 40.51 117.41 39.01 121.48 37.50 Z" />
<path fill="#019ca8" opacity="1.00" d=" M 111.16 53.26 C 115.45 52.67 119.81 52.95 124.13 53.02 C 125.72 52.83 126.87 53.94 128.00 54.87 L 128.00 57.25 C 127.07 57.95 126.41 59.34 125.08 59.27 C 120.43 59.50 115.72 59.69 111.10 59.12 C 108.43 58.33 108.47 53.96 111.16 53.26 Z" />
<path fill="#019ca8" opacity="1.00" d=" M 109.46 64.37 C 111.24 63.55 113.11 64.84 114.80 65.34 C 118.25 66.87 121.97 67.83 125.21 69.78 C 127.55 71.84 124.92 76.07 122.05 74.97 C 117.86 73.58 113.76 71.91 109.71 70.17 C 107.09 69.39 106.94 65.38 109.46 64.37 Z" />
</g>
</svg>
