<?xml version="1.0" encoding="UTF-8" ?>
<!DOCTYPE svg PUBLIC "-//W3C//DTD SVG 1.1//EN" "http://www.w3.org/Graphics/SVG/1.1/DTD/svg11.dtd">
<svg width="128pt" height="128pt" viewBox="0 0 128 128" version="1.1" xmlns="http://www.w3.org/2000/svg">
<g id="#019ca8ff">
<path fill="#019ca8" opacity="1.00" d=" M 103.48 0.00 L 104.45 0.00 C 112.64 0.27 119.73 6.45 122.11 14.12 C 124.55 21.51 123.19 30.14 118.18 36.17 C 113.61 41.67 108.69 46.88 104.00 52.28 C 99.30 46.88 94.37 41.68 89.80 36.17 C 83.31 28.34 82.99 16.18 89.01 8.00 C 92.28 3.27 97.75 0.32 103.48 0.00 M 88.92 22.00 C 88.90 32.31 98.29 38.46 104.00 45.84 C 108.08 40.99 112.74 36.58 116.38 31.38 C 122.45 22.11 118.02 7.04 106.64 4.58 C 96.67 2.43 88.25 12.58 88.92 22.00 Z" />
<path fill="#019ca8" opacity="1.00" d=" M 100.30 9.47 C 106.67 6.76 114.70 11.08 115.82 17.92 C 117.84 25.53 110.21 33.36 102.56 31.65 C 95.93 30.78 91.28 23.35 93.43 17.00 C 94.36 13.59 97.02 10.76 100.30 9.47 M 101.41 13.55 C 96.56 15.60 95.65 22.90 99.92 26.02 C 103.86 29.47 110.71 27.05 111.70 21.95 C 113.35 16.26 106.68 10.81 101.41 13.55 Z" />
<path fill="#019ca8" opacity="1.00" d=" M 64.41 47.58 C 66.58 46.13 70.89 47.75 68.62 50.59 C 66.42 51.48 63.44 53.74 61.36 51.67 C 60.42 49.55 62.65 48.07 64.41 47.58 Z" />
<path fill="#019ca8" opacity="1.00" d=" M 74.40 47.40 C 76.69 46.68 79.28 46.66 81.54 47.52 C 83.59 51.25 78.42 51.67 75.93 51.13 C 73.90 51.26 72.94 48.74 74.40 47.40 Z" />
<path fill="#019ca8" opacity="1.00" d=" M 87.26 47.53 C 89.45 46.46 92.29 46.70 94.51 47.66 C 96.05 51.29 91.45 51.58 89.00 51.17 C 86.97 51.50 85.40 48.68 87.26 47.53 Z" />
<path fill="#019ca8" opacity="1.00" d=" M 9.17 61.17 C 14.14 55.82 21.56 52.74 28.87 53.54 C 37.55 54.28 45.17 60.31 48.90 68.03 C 54.23 78.59 52.94 92.24 45.36 101.40 C 39.27 108.62 32.87 115.57 26.66 122.68 C 20.40 115.51 13.93 108.51 7.80 101.22 C -1.52 89.91 -0.98 71.78 9.17 61.17 M 13.69 62.72 C 3.59 71.59 2.65 88.48 11.22 98.70 C 16.23 104.67 21.54 110.37 26.65 116.25 C 31.59 110.64 36.60 105.11 41.49 99.46 C 51.40 88.53 49.73 69.04 37.16 60.84 C 30.11 55.99 19.90 56.86 13.69 62.72 Z" />
<path fill="#019ca8" opacity="1.00" d=" M 57.29 56.06 C 58.14 54.77 60.69 55.40 60.62 57.06 C 60.88 59.28 62.31 63.36 59.01 63.83 C 56.12 62.89 56.06 58.29 57.29 56.06 Z" />
<path fill="#019ca8" opacity="1.00" d=" M 23.41 66.60 C 31.08 64.26 39.56 71.05 39.40 78.95 C 39.49 86.24 32.23 92.76 24.95 91.57 C 18.94 90.72 13.81 85.09 13.89 78.94 C 13.80 73.29 18.10 68.17 23.41 66.60 M 23.31 71.18 C 17.34 73.46 16.46 82.59 21.94 85.91 C 26.79 89.54 34.55 85.99 35.01 79.96 C 36.07 73.78 28.97 68.46 23.31 71.18 Z" />
<path fill="#019ca8" opacity="1.00" d=" M 63.38 66.35 C 64.59 64.75 67.25 66.18 68.99 66.21 C 71.61 66.17 71.76 70.33 69.04 70.36 C 66.77 70.46 61.03 69.69 63.38 66.35 Z" />
<path fill="#019ca8" opacity="1.00" d=" M 76.04 69.89 C 73.79 64.99 80.98 65.97 83.78 66.57 C 83.73 67.56 83.63 68.55 83.50 69.54 C 81.32 70.98 78.42 70.57 76.04 69.89 Z" />
<path fill="#019ca8" opacity="1.00" d=" M 89.39 66.53 C 91.58 65.84 94.23 65.74 96.30 66.89 C 97.11 68.59 96.64 69.72 94.88 70.29 C 92.64 70.49 89.89 70.96 88.22 69.03 C 88.51 68.41 89.09 67.15 89.39 66.53 Z" />
<path fill="#019ca8" opacity="1.00" d=" M 102.35 66.43 C 104.72 66.06 108.44 65.19 109.60 68.01 C 109.31 71.24 105.30 70.41 103.04 70.31 C 100.80 70.36 100.43 66.90 102.35 66.43 Z" />
<path fill="#019ca8" opacity="1.00" d=" M 113.35 69.11 C 114.21 64.44 121.57 66.16 122.10 69.94 C 120.35 73.60 115.92 70.05 113.35 69.11 Z" />
<path fill="#019ca8" opacity="1.00" d=" M 122.98 74.98 C 124.48 73.64 126.02 74.31 126.76 76.00 C 126.98 78.33 127.04 81.18 125.03 82.80 C 120.90 82.72 122.72 77.60 122.98 74.98 Z" />
<path fill="#019ca8" opacity="1.00" d=" M 75.51 85.70 C 77.90 84.69 84.38 84.92 82.08 88.94 C 79.86 90.00 77.09 89.90 74.82 89.02 C 73.80 87.57 74.03 86.46 75.51 85.70 Z" />
<path fill="#019ca8" opacity="1.00" d=" M 86.35 88.10 C 87.56 85.06 90.82 84.93 93.60 85.46 C 95.27 85.50 96.04 87.75 94.93 88.91 C 92.22 90.33 88.85 89.70 86.35 88.10 Z" />
<path fill="#019ca8" opacity="1.00" d=" M 101.37 85.56 C 103.70 85.24 108.13 84.44 108.31 87.86 C 107.10 90.40 103.70 89.63 101.46 89.40 C 99.33 89.06 99.35 86.03 101.37 85.56 Z" />
<path fill="#019ca8" opacity="1.00" d=" M 114.36 85.52 C 116.69 85.04 120.66 83.41 121.10 86.94 C 120.12 89.36 117.11 89.20 114.96 89.54 C 112.39 89.86 111.78 85.91 114.36 85.52 Z" />
<path fill="#019ca8" opacity="1.00" d=" M 68.42 89.37 C 69.89 89.05 71.63 90.35 70.94 91.93 C 70.18 94.02 69.62 97.01 67.05 97.50 C 63.61 95.82 66.11 91.03 68.42 89.37 Z" />
<path fill="#019ca8" opacity="1.00" d=" M 68.40 101.51 C 70.32 100.47 72.46 103.03 73.97 104.19 C 76.28 105.76 73.49 109.26 71.44 107.46 C 69.39 106.44 65.70 103.71 68.40 101.51 Z" />
<path fill="#019ca8" opacity="1.00" d=" M 80.15 104.96 C 82.31 104.18 84.81 104.32 86.96 105.08 C 87.96 106.28 87.52 108.36 85.91 108.64 C 83.86 108.97 81.66 109.05 79.70 108.25 C 79.13 107.07 78.64 105.66 80.15 104.96 Z" />
<path fill="#019ca8" opacity="1.00" d=" M 92.33 105.29 C 94.30 104.17 96.72 104.36 98.86 104.76 C 101.35 105.17 100.37 108.98 98.12 108.76 C 95.72 109.25 90.58 109.02 92.33 105.29 Z" />
<path fill="#019ca8" opacity="1.00" d=" M 104.62 108.12 C 104.16 106.36 106.43 104.86 107.89 105.98 C 109.71 106.85 111.21 108.33 112.14 110.13 C 111.61 111.09 111.01 112.00 110.32 112.86 C 108.28 111.50 105.93 110.29 104.62 108.12 Z" />
<path fill="#019ca8" opacity="1.00" d=" M 107.51 123.34 C 108.67 120.89 108.91 116.73 112.18 116.26 C 115.18 117.52 113.19 121.15 111.94 123.03 C 110.95 124.75 108.93 123.80 107.51 123.34 Z" />
<path fill="#019ca8" opacity="1.00" d=" M 32.45 124.42 C 35.44 123.09 38.94 123.45 41.45 125.63 C 40.81 126.22 39.53 127.41 38.89 128.00 L 32.97 128.00 C 32.71 126.82 32.34 125.64 32.45 124.42 Z" />
<path fill="#019ca8" opacity="1.00" d=" M 45.44 124.40 C 48.29 123.05 51.68 123.52 54.11 125.51 C 53.55 126.13 52.43 127.38 51.88 128.00 L 46.28 128.00 C 45.52 126.92 44.52 125.73 45.44 124.40 Z" />
<path fill="#019ca8" opacity="1.00" d=" M 57.40 124.96 C 60.02 123.64 63.02 123.25 65.82 124.25 C 65.86 125.50 65.76 126.75 65.64 128.00 L 58.91 128.00 C 58.53 127.24 57.78 125.72 57.40 124.96 Z" />
<path fill="#019ca8" opacity="1.00" d=" M 70.16 125.09 C 72.74 123.52 75.91 123.22 78.72 124.38 C 78.76 125.59 78.61 126.80 78.44 128.00 L 71.81 128.00 C 71.40 127.27 70.57 125.82 70.16 125.09 Z" />
<path fill="#019ca8" opacity="1.00" d=" M 82.80 125.30 C 85.37 123.47 88.70 123.15 91.58 124.42 C 91.62 125.63 91.38 126.82 91.16 128.00 L 84.79 128.00 C 84.30 127.33 83.30 125.98 82.80 125.30 Z" />
<path fill="#019ca8" opacity="1.00" d=" M 96.45 124.47 C 99.38 123.01 102.87 123.53 105.36 125.62 C 104.75 126.21 103.52 127.40 102.90 128.00 L 97.27 128.00 C 96.77 126.89 96.04 125.74 96.45 124.47 Z" />
</g>
</svg>
