<?xml version="1.0" encoding="UTF-8" ?>
<!DOCTYPE svg PUBLIC "-//W3C//DTD SVG 1.1//EN" "http://www.w3.org/Graphics/SVG/1.1/DTD/svg11.dtd">
<svg width="128pt" height="128pt" viewBox="0 0 128 128" version="1.1" xmlns="http://www.w3.org/2000/svg">
<g id="#019ca8ff">
<path fill="#019ca8" opacity="1.00" d=" M 0.00 18.78 C 0.86 16.79 2.62 15.41 4.87 15.68 C 44.28 15.64 83.70 15.64 123.11 15.68 C 125.30 15.41 127.03 16.75 128.00 18.61 L 128.00 109.22 C 126.83 112.74 122.95 112.43 119.97 112.38 C 81.60 112.27 43.23 112.40 4.87 112.32 C 2.68 112.58 0.97 111.24 0.00 109.39 L 0.00 18.78 M 81.33 27.27 C 78.79 28.35 78.08 32.03 80.10 33.93 C 82.20 36.30 86.59 35.03 87.09 31.91 C 87.95 28.73 84.25 25.78 81.33 27.27 M 94.24 27.13 C 91.30 27.97 90.45 32.22 92.83 34.14 C 95.05 36.29 99.23 34.85 99.63 31.78 C 100.32 28.82 97.07 26.02 94.24 27.13 M 106.30 27.30 C 103.55 28.49 103.14 32.67 105.62 34.36 C 108.15 36.44 112.43 34.29 112.21 31.01 C 112.35 28.09 108.87 25.95 106.30 27.30 M 7.16 47.63 C 7.16 67.11 7.13 86.59 7.17 106.08 C 32.74 106.12 58.30 106.08 83.87 106.09 C 82.58 103.81 80.84 101.68 80.28 99.07 C 79.86 96.64 81.89 94.99 83.46 93.54 C 83.38 90.60 83.65 87.67 84.19 84.78 C 82.79 82.99 81.07 80.76 82.19 78.37 C 84.04 75.30 86.48 72.52 89.23 70.22 C 91.42 68.62 93.98 70.00 95.99 71.17 C 98.76 70.26 101.60 69.60 104.49 69.26 C 105.93 67.26 107.82 64.76 110.64 65.41 C 114.29 66.40 117.80 67.99 120.91 70.15 C 120.77 62.64 120.88 55.13 120.84 47.63 C 82.95 47.62 45.05 47.63 7.16 47.63 M 101.37 81.20 C 93.37 83.42 91.27 95.14 97.87 100.09 C 103.77 105.41 114.53 101.77 115.54 93.77 C 117.51 85.95 108.91 78.36 101.37 81.20 Z" />
<path fill="#019ca8" opacity="1.00" d=" M 26.97 52.99 C 27.65 51.23 30.28 51.48 30.78 53.23 C 33.43 58.36 35.65 63.71 38.15 68.92 C 39.62 72.16 41.48 75.30 42.08 78.85 C 40.98 79.18 39.76 80.20 38.62 79.37 C 36.93 77.44 36.19 74.89 35.06 72.63 C 30.93 72.62 26.79 72.62 22.65 72.62 C 21.60 74.87 20.78 77.25 19.32 79.28 C 18.04 80.46 16.42 79.57 15.83 78.16 C 16.26 75.27 17.87 72.75 19.00 70.11 C 21.73 64.43 24.05 58.56 26.97 52.99 M 24.69 68.25 C 27.47 68.25 30.25 68.25 33.03 68.25 C 31.63 65.23 30.23 62.21 28.81 59.19 C 27.43 62.21 26.06 65.23 24.69 68.25 Z" />
<path fill="#019ca8" opacity="1.00" d=" M 43.29 55.88 C 43.41 54.40 43.04 51.93 45.11 51.67 C 49.65 51.42 54.30 51.14 58.78 52.04 C 64.31 53.64 66.40 61.36 62.44 65.55 C 58.76 69.79 52.61 68.31 47.68 68.56 C 47.57 71.86 48.05 75.23 47.38 78.49 C 46.58 80.52 43.46 79.91 43.44 77.75 C 43.11 70.47 43.42 63.17 43.29 55.88 M 47.69 55.89 C 47.69 58.64 47.69 61.39 47.69 64.14 C 51.04 64.06 54.45 64.50 57.75 63.78 C 60.94 62.49 60.93 57.54 57.75 56.25 C 54.45 55.52 51.03 55.98 47.69 55.89 Z" />
<path fill="#019ca8" opacity="1.00" d=" M 67.09 52.04 C 68.67 50.77 70.84 52.23 70.63 54.13 C 70.82 60.74 70.59 67.36 70.72 73.98 C 70.62 76.02 71.19 78.71 68.98 79.85 C 67.76 79.70 66.44 79.21 66.41 77.76 C 66.06 70.84 66.41 63.90 66.25 56.97 C 66.37 55.33 65.98 53.43 67.09 52.04 Z" />
</g>
</svg>
