<?xml version="1.0" encoding="UTF-8" ?>
<!DOCTYPE svg PUBLIC "-//W3C//DTD SVG 1.1//EN" "http://www.w3.org/Graphics/SVG/1.1/DTD/svg11.dtd">
<svg width="155pt" height="127pt" viewBox="0 0 155 127" version="1.1" xmlns="http://www.w3.org/2000/svg">
<g id="#009ca6fe">
<path fill="#009ca6" opacity="1.00" d=" M 50.11 10.09 C 65.56 -2.10 89.57 -2.45 104.92 10.11 C 115.52 17.52 120.89 30.04 123.29 42.35 C 132.17 42.55 141.76 45.31 147.39 52.63 C 151.87 57.50 153.28 64.14 154.65 70.38 C 150.24 70.01 145.75 70.42 141.38 69.64 C 138.30 66.02 137.36 60.41 132.93 58.10 C 126.24 56.47 119.19 57.18 112.35 56.84 C 111.53 48.19 112.80 38.30 107.02 30.98 C 96.74 13.46 70.10 9.59 55.01 23.00 C 48.54 27.88 45.43 35.79 43.17 43.31 C 36.39 43.34 28.48 41.80 23.06 47.07 C 15.22 51.82 14.91 61.82 15.40 69.95 C 11.65 69.96 4.16 69.98 0.41 69.99 C 1.10 60.00 1.67 48.67 8.99 41.00 C 15.07 33.14 25.04 29.79 34.47 28.18 C 40.04 22.52 43.65 14.96 50.11 10.09 Z" />
<path fill="#009ca6" opacity="1.00" d=" M 13.40 84.55 C 34.91 83.21 56.49 84.24 78.03 83.91 C 82.27 83.86 88.67 83.62 90.80 88.34 C 91.82 91.62 90.71 97.01 86.62 97.49 C 63.43 98.67 40.17 97.97 16.95 97.92 C 12.08 99.36 5.52 93.47 8.33 88.42 C 9.38 86.51 11.22 84.95 13.40 84.55 Z" />
<path fill="#009ca6" opacity="1.00" d=" M 103.39 84.54 C 114.90 83.45 126.50 83.67 138.06 83.94 C 141.17 83.92 144.47 85.07 146.26 87.75 C 149.64 91.83 145.60 95.30 142.72 97.58 C 129.29 98.47 115.74 98.63 102.33 97.55 C 96.57 95.19 97.12 85.64 103.39 84.54 Z" />
<path fill="#009ca6" opacity="1.00" d=" M 8.61 116.65 C 9.87 112.91 14.41 111.54 17.99 111.95 C 23.35 112.18 30.95 110.05 34.71 115.30 C 37.66 118.99 34.09 123.11 32.24 126.36 C 25.61 126.31 18.99 126.01 12.38 125.47 C 8.77 124.64 7.09 119.87 8.61 116.65 Z" />
<path fill="#009ca6" opacity="1.00" d=" M 48.40 112.54 C 66.56 111.16 84.80 112.32 103.00 112.00 C 115.62 112.22 128.31 111.26 140.90 112.25 C 145.91 112.81 148.89 119.51 145.52 123.48 C 142.77 127.42 136.92 125.13 133.03 126.05 C 104.73 125.80 76.40 126.52 48.10 125.71 C 41.02 125.07 41.36 113.28 48.40 112.54 Z" />
</g>
</svg>
