<?xml version="1.0" encoding="UTF-8" ?>
<!DOCTYPE svg PUBLIC "-//W3C//DTD SVG 1.1//EN" "http://www.w3.org/Graphics/SVG/1.1/DTD/svg11.dtd">
<svg width="128pt" height="128pt" viewBox="0 0 128 128" version="1.1" xmlns="http://www.w3.org/2000/svg">
<g id="#019ca8ff">
<path fill="#019ca8" opacity="1.00" d=" M 61.25 14.14 C 74.54 12.65 88.01 21.67 91.63 34.54 C 93.84 42.04 93.00 50.39 89.52 57.37 C 84.67 66.51 76.20 72.96 70.66 81.62 C 68.65 84.46 67.49 87.79 65.66 90.73 C 65.01 92.04 62.96 92.05 62.32 90.73 C 60.33 87.31 58.87 83.57 56.48 80.39 C 49.86 70.75 39.41 63.37 36.23 51.65 C 32.39 38.79 38.55 23.85 50.36 17.48 C 53.72 15.64 57.45 14.56 61.25 14.14 M 60.27 28.10 C 51.99 29.94 46.62 39.47 49.41 47.50 C 51.58 55.03 60.13 59.83 67.69 57.75 C 75.37 56.00 80.66 47.71 78.96 40.00 C 77.59 31.65 68.43 25.83 60.27 28.10 Z" />
<path fill="#019ca8" opacity="1.00" d=" M 18.50 73.61 C 19.48 71.77 20.29 68.96 22.94 69.42 C 28.45 69.55 34.05 68.98 39.51 69.73 C 42.50 71.92 44.59 75.09 47.14 77.75 C 40.43 77.86 33.70 77.54 27.00 77.87 C 25.57 77.76 25.15 79.45 24.50 80.38 C 20.39 88.84 16.28 97.29 12.16 105.75 C 46.72 105.75 81.28 105.75 115.84 105.75 C 111.70 97.26 107.58 88.77 103.45 80.29 C 102.82 79.37 102.38 77.76 100.99 77.87 C 94.28 77.54 87.55 77.86 80.83 77.75 C 83.40 75.09 85.47 71.86 88.50 69.70 C 94.24 69.06 100.10 69.45 105.89 69.49 C 107.84 69.36 108.32 71.59 109.15 72.90 C 115.36 85.94 121.86 98.84 128.00 111.91 L 128.00 113.43 C 126.40 113.80 124.77 114.11 123.11 114.09 C 86.08 114.02 49.05 114.08 12.01 114.06 C 8.01 114.02 3.94 114.41 0.00 113.46 L 0.00 111.98 C 5.97 99.10 12.42 86.44 18.50 73.61 Z" />
</g>
</svg>
