<?xml version="1.0" encoding="UTF-8" ?>
<!DOCTYPE svg PUBLIC "-//W3C//DTD SVG 1.1//EN" "http://www.w3.org/Graphics/SVG/1.1/DTD/svg11.dtd">
<svg width="128pt" height="128pt" viewBox="0 0 128 128" version="1.1" xmlns="http://www.w3.org/2000/svg">
<g id="#019ca8ff">
<path fill="#019ca8" opacity="1.00" d=" M 13.88 0.00 L 82.96 0.00 C 93.42 10.30 103.71 20.76 114.12 31.11 C 114.13 63.41 114.12 95.70 114.12 128.00 L 13.88 128.00 C 13.88 85.33 13.88 42.67 13.88 0.00 M 18.13 4.28 C 18.12 44.09 18.12 83.91 18.13 123.72 C 48.71 123.72 79.29 123.71 109.87 123.72 C 109.88 93.86 109.87 63.99 109.87 34.13 C 99.92 34.12 89.96 34.13 80.00 34.12 C 79.99 24.17 80.01 14.23 79.99 4.28 C 59.37 4.29 38.75 4.28 18.13 4.28 M 84.29 7.29 C 84.28 14.82 84.29 22.34 84.28 29.87 C 91.80 29.88 99.32 29.88 106.83 29.87 C 99.32 22.34 91.81 14.81 84.29 7.29 Z" />
<path fill="#019ca8" opacity="1.00" d=" M 34.26 32.37 C 40.79 31.55 47.51 32.14 54.10 32.06 C 56.50 31.65 57.45 35.72 54.88 36.11 C 48.28 36.43 41.62 36.34 35.01 36.17 C 32.98 36.17 32.47 33.02 34.26 32.37 Z" />
<path fill="#019ca8" opacity="1.00" d=" M 34.27 49.42 C 38.07 48.67 42.06 49.07 45.93 49.17 C 48.43 49.08 48.57 53.19 46.01 53.23 C 42.35 53.45 38.67 53.46 35.01 53.23 C 32.94 53.19 32.51 50.07 34.27 49.42 Z" />
<path fill="#019ca8" opacity="1.00" d=" M 56.22 49.10 C 58.82 48.90 59.51 52.72 56.87 53.32 C 54.18 53.53 53.65 49.74 56.22 49.10 Z" />
<path fill="#019ca8" opacity="1.00" d=" M 66.30 49.41 C 71.45 48.65 76.77 49.13 81.98 49.15 C 84.72 48.81 84.93 53.48 82.06 53.24 C 77.05 53.42 72.02 53.45 67.02 53.23 C 64.97 53.23 64.47 50.04 66.30 49.41 Z" />
<path fill="#019ca8" opacity="1.00" d=" M 91.53 49.50 C 93.76 47.90 96.28 51.58 93.89 52.86 C 91.80 54.53 89.50 51.04 91.53 49.50 Z" />
<path fill="#019ca8" opacity="1.00" d=" M 78.14 64.32 C 79.60 62.28 81.19 59.71 84.05 59.76 C 87.00 59.47 88.87 61.94 90.15 64.22 C 92.68 63.90 95.75 63.16 97.74 65.29 C 99.99 67.25 99.42 70.37 98.90 72.95 C 101.10 74.28 103.64 76.06 103.43 78.99 C 103.57 81.89 101.04 83.60 98.89 84.95 C 100.33 88.68 98.94 92.98 94.97 94.29 C 94.90 102.97 94.97 111.65 94.93 120.33 C 91.38 116.79 87.84 113.24 84.29 109.69 C 80.71 113.22 77.18 116.79 73.60 120.32 C 73.59 111.67 73.58 103.01 73.61 94.36 C 72.24 93.45 70.57 92.76 69.77 91.23 C 68.60 89.31 69.38 87.03 69.65 84.98 C 67.47 83.66 64.99 81.85 65.10 78.99 C 64.83 75.96 67.69 74.47 69.56 72.70 C 69.34 70.28 68.52 67.44 70.56 65.53 C 72.45 63.24 75.60 63.72 78.14 64.32 M 79.86 68.15 C 77.83 69.01 75.67 68.15 73.61 67.94 C 73.58 69.95 73.92 71.96 73.67 73.96 C 72.99 76.30 70.55 77.39 68.90 78.97 C 70.60 80.51 73.11 81.63 73.70 84.04 C 73.93 85.96 73.54 87.88 73.50 89.80 C 75.52 89.72 77.59 88.94 79.59 89.56 C 81.74 90.35 82.72 92.59 84.04 94.29 C 85.44 92.93 86.53 91.27 88.02 90.00 C 90.21 88.67 92.85 89.80 95.24 89.50 C 95.03 87.44 94.18 85.23 95.12 83.22 C 96.08 81.32 98.08 80.33 99.62 78.97 C 98.11 77.59 96.18 76.57 95.15 74.73 C 94.10 72.65 95.40 70.33 94.85 68.18 C 92.43 68.06 89.56 69.30 87.54 67.41 C 86.33 66.18 85.25 64.82 84.03 63.60 C 82.79 65.23 81.81 67.26 79.86 68.15 M 77.91 93.21 C 77.85 98.82 77.88 104.43 77.88 110.05 C 80.02 107.93 82.15 105.80 84.27 103.66 C 86.40 105.79 88.52 107.92 90.66 110.05 C 90.64 104.44 90.71 98.82 90.60 93.21 C 88.98 95.46 87.23 98.52 83.96 98.08 C 80.97 98.15 79.44 95.28 77.91 93.21 Z" />
<path fill="#019ca8" opacity="1.00" d=" M 34.47 66.42 C 36.78 65.14 38.60 69.52 35.93 70.12 C 33.56 71.47 31.89 67.01 34.47 66.42 Z" />
<path fill="#019ca8" opacity="1.00" d=" M 45.27 66.34 C 50.43 65.90 55.66 66.08 60.83 66.23 C 63.31 66.14 63.56 70.16 61.00 70.30 C 56.02 70.51 51.01 70.48 46.03 70.32 C 43.58 70.68 42.99 66.78 45.27 66.34 Z" />
<path fill="#019ca8" opacity="1.00" d=" M 35.07 97.48 C 35.72 92.88 37.57 87.89 42.02 85.73 C 43.79 84.80 45.84 86.93 44.68 88.60 C 43.30 90.23 41.28 91.36 40.48 93.43 C 38.88 96.54 39.76 100.29 38.40 103.43 C 38.05 103.57 37.36 103.85 37.02 104.00 C 33.56 102.60 30.87 99.66 28.38 96.94 C 29.94 93.63 33.26 95.54 35.07 97.48 Z" />
<path fill="#019ca8" opacity="1.00" d=" M 44.35 94.08 C 46.41 92.13 47.86 94.90 49.14 96.27 C 52.58 96.47 55.43 93.51 58.88 94.38 C 61.04 94.61 62.27 96.78 61.91 98.81 C 61.42 99.06 60.43 99.55 59.93 99.80 C 59.03 99.28 58.11 98.77 57.20 98.28 C 54.17 99.84 50.46 101.72 47.18 99.71 C 45.34 98.59 42.98 96.38 44.35 94.08 Z" />
</g>
</svg>
