<?xml version="1.0" encoding="UTF-8" ?>
<!DOCTYPE svg PUBLIC "-//W3C//DTD SVG 1.1//EN" "http://www.w3.org/Graphics/SVG/1.1/DTD/svg11.dtd">
<svg width="128pt" height="128pt" viewBox="0 0 128 128" version="1.1" xmlns="http://www.w3.org/2000/svg">
<g id="#019ca8ff">
<path fill="#019ca8" opacity="1.00" d=" M 55.01 21.18 C 66.52 17.46 79.82 20.21 88.93 28.16 C 96.70 34.69 101.15 44.64 101.49 54.72 C 107.22 55.09 112.97 56.80 117.49 60.43 C 123.84 65.28 127.65 73.04 128.00 80.98 L 128.00 82.18 C 127.66 89.58 124.49 96.91 118.82 101.77 C 113.73 106.40 106.81 108.58 100.00 108.55 C 77.00 108.56 53.99 108.60 30.98 108.53 C 22.00 108.57 13.00 104.71 7.26 97.73 C 2.70 92.53 0.37 85.72 0.00 78.87 L 0.00 77.90 C 0.27 69.40 3.95 61.03 10.45 55.46 C 15.95 50.47 23.35 48.07 30.70 47.83 C 33.37 35.48 42.86 24.83 55.01 21.18 M 59.48 25.62 C 48.02 27.90 38.37 37.46 36.15 48.96 C 35.87 51.27 34.73 53.92 31.91 53.39 C 21.93 52.81 11.95 58.63 7.83 67.79 C 3.99 75.95 5.05 86.20 10.66 93.30 C 15.37 99.59 23.20 103.21 31.02 103.07 C 54.32 103.10 77.63 103.12 100.93 103.06 C 107.68 103.09 114.36 99.80 118.32 94.31 C 123.09 87.97 123.79 78.93 120.12 71.91 C 116.61 64.87 108.93 60.17 101.05 60.30 C 99.39 60.19 97.09 60.67 96.21 58.80 C 95.80 56.54 96.01 54.22 95.73 51.94 C 94.86 42.52 89.06 33.85 80.93 29.11 C 74.54 25.35 66.73 24.12 59.48 25.62 Z" />
<path fill="#019ca8" opacity="1.00" d=" M 43.06 52.07 C 44.32 41.04 54.72 32.00 65.83 32.36 C 68.01 32.50 68.99 35.06 67.74 36.75 C 66.34 37.79 64.52 37.74 62.89 38.07 C 56.49 38.94 50.81 43.89 49.08 50.10 C 48.64 51.62 48.16 53.12 47.59 54.59 C 45.62 55.84 42.77 54.59 43.06 52.07 Z" />
</g>
</svg>
