<?xml version="1.0" encoding="UTF-8" ?>
<!DOCTYPE svg PUBLIC "-//W3C//DTD SVG 1.1//EN" "http://www.w3.org/Graphics/SVG/1.1/DTD/svg11.dtd">
<svg width="128pt" height="128pt" viewBox="0 0 128 128" version="1.1" xmlns="http://www.w3.org/2000/svg">
<g id="#019ca8ff">
<path fill="#019ca8" opacity="1.00" d=" M 16.00 0.00 L 80.23 0.00 C 88.59 8.56 97.03 17.04 105.58 25.42 C 107.69 27.58 110.19 29.53 111.59 32.26 C 112.46 36.44 111.95 40.76 112.02 44.99 C 111.97 72.66 112.01 100.33 112.00 128.00 L 16.00 128.00 C 16.00 85.33 16.00 42.67 16.00 0.00 M 24.06 8.06 C 23.96 45.37 23.96 82.68 24.06 119.99 C 26.69 120.03 29.31 120.03 31.94 119.99 C 32.75 109.73 30.19 98.96 34.20 89.15 C 36.82 80.95 40.81 72.89 40.14 64.04 C 45.42 63.91 50.71 64.08 55.99 63.97 C 55.95 66.63 55.97 69.29 56.03 71.95 C 61.32 72.08 66.62 71.91 71.92 72.07 C 74.14 77.67 75.75 83.49 77.80 89.15 C 81.81 98.94 79.25 109.70 80.06 119.94 C 88.02 120.06 95.98 120.06 103.94 119.94 C 104.04 93.32 104.04 66.68 103.94 40.06 C 93.31 39.93 82.68 39.99 72.05 40.02 C 72.06 37.37 72.03 34.72 71.96 32.07 C 66.64 31.92 61.32 31.92 56.00 32.04 C 56.06 29.35 56.06 26.65 56.00 23.96 C 61.33 24.08 66.66 24.07 71.99 23.93 C 72.03 21.31 72.03 18.69 71.99 16.06 C 66.66 15.93 61.33 15.92 56.01 16.04 C 56.05 13.38 56.03 10.72 55.97 8.06 C 45.33 7.95 34.69 7.95 24.06 8.06 M 80.13 8.61 C 79.88 16.38 79.95 24.16 80.06 31.94 C 87.83 32.05 95.62 32.12 103.39 31.87 C 99.91 27.62 95.80 23.96 91.96 20.04 C 88.04 16.20 84.38 12.09 80.13 8.61 M 45.41 80.26 C 43.82 86.22 41.35 91.95 40.19 98.02 C 39.72 105.31 40.05 112.64 40.06 119.94 C 50.68 120.05 61.32 120.05 71.94 119.94 C 71.94 112.64 72.32 105.31 71.79 98.02 C 70.21 91.82 67.15 86.10 64.82 80.16 C 58.35 79.89 51.87 79.78 45.41 80.26 Z" />
<path fill="#019ca8" opacity="1.00" d=" M 40.00 16.09 C 45.33 15.91 50.67 15.95 56.01 16.04 C 55.98 18.68 55.98 21.32 56.00 23.96 C 50.66 24.06 45.33 24.09 40.00 23.91 C 39.99 21.30 39.99 18.69 40.00 16.09 Z" />
<path fill="#019ca8" opacity="1.00" d=" M 40.00 32.09 C 45.33 31.91 50.66 31.95 56.00 32.04 C 55.99 34.69 55.99 37.34 56.00 39.99 C 50.67 40.06 45.33 40.08 39.99 39.91 C 39.99 37.30 39.99 34.70 40.00 32.09 Z" />
<path fill="#019ca8" opacity="1.00" d=" M 56.00 39.99 C 61.35 39.99 66.70 40.01 72.05 40.02 C 72.01 42.65 71.96 45.28 71.92 47.91 C 66.61 48.07 61.31 48.05 56.00 48.00 C 56.00 45.33 56.00 42.66 56.00 39.99 Z" />
<path fill="#019ca8" opacity="1.00" d=" M 40.00 48.09 C 45.33 47.92 50.67 47.94 56.00 48.00 C 56.00 50.67 56.00 53.33 56.00 56.00 C 50.67 56.05 45.33 56.08 40.00 55.91 C 39.99 53.30 39.99 50.70 40.00 48.09 Z" />
<path fill="#019ca8" opacity="1.00" d=" M 56.00 56.00 C 61.33 55.95 66.67 55.92 72.00 56.09 C 72.01 58.70 72.01 61.30 72.00 63.91 C 66.67 64.09 61.33 64.05 55.99 63.97 C 56.01 61.32 56.01 58.66 56.00 56.00 Z" />
<path fill="#019ca8" opacity="1.00" d=" M 48.07 96.07 C 53.35 95.91 58.64 95.91 63.93 96.07 C 64.09 101.35 64.09 106.64 63.93 111.93 C 58.65 112.09 53.36 112.09 48.07 111.94 C 47.91 106.65 47.91 101.36 48.07 96.07 Z" />
</g>
</svg>
