<?xml version="1.0" encoding="UTF-8" ?>
<!DOCTYPE svg PUBLIC "-//W3C//DTD SVG 1.1//EN" "http://www.w3.org/Graphics/SVG/1.1/DTD/svg11.dtd">
<svg width="128pt" height="128pt" viewBox="0 0 128 128" version="1.1" xmlns="http://www.w3.org/2000/svg">
<g id="#019ca8ff">
<path fill="#019ca8" opacity="1.00" d=" M 69.46 0.00 L 70.21 0.00 C 76.51 0.24 82.56 3.95 85.36 9.63 C 87.35 13.31 86.79 17.73 88.43 21.52 C 90.64 26.15 97.29 27.54 101.23 24.30 C 104.27 22.23 104.39 18.28 105.30 15.07 C 106.11 11.12 110.68 7.95 114.60 9.17 C 116.52 9.64 115.80 12.04 116.09 13.46 C 114.46 14.12 112.83 14.79 111.21 15.46 C 110.23 19.88 109.66 24.86 105.96 27.97 C 100.14 33.84 89.52 33.03 84.60 26.41 C 80.20 21.57 82.81 13.71 77.84 9.22 C 72.83 3.97 63.10 5.33 59.79 11.82 C 57.19 17.18 58.47 23.36 58.20 29.10 C 63.85 29.15 69.54 28.75 75.15 29.64 C 75.51 32.54 75.61 35.45 75.74 38.36 C 87.74 43.51 97.68 53.49 101.94 65.92 C 107.34 80.74 104.35 98.24 94.39 110.45 C 85.91 121.23 72.52 127.56 58.87 128.00 L 57.93 128.00 C 44.00 127.70 30.29 121.21 21.73 110.14 C 11.73 97.63 8.94 79.77 14.80 64.84 C 19.27 52.89 29.01 43.36 40.66 38.35 C 40.95 35.57 39.97 32.15 41.88 29.87 C 45.13 28.39 48.92 29.31 52.38 29.09 C 52.49 24.06 51.99 18.98 52.80 14.00 C 54.19 6.16 61.57 0.18 69.46 0.00 M 37.53 53.43 C 23.90 63.07 19.28 83.07 27.39 97.68 C 28.66 99.79 30.06 103.70 33.24 102.32 C 36.04 100.50 33.90 97.38 32.76 95.26 C 26.33 84.18 28.83 68.91 38.37 60.39 C 39.93 58.85 42.05 57.61 42.75 55.41 C 42.84 52.60 39.38 51.49 37.53 53.43 Z" />
</g>
</svg>
