<?xml version="1.0" encoding="UTF-8" ?>
<!DOCTYPE svg PUBLIC "-//W3C//DTD SVG 1.1//EN" "http://www.w3.org/Graphics/SVG/1.1/DTD/svg11.dtd">
<svg width="128pt" height="128pt" viewBox="0 0 128 128" version="1.1" xmlns="http://www.w3.org/2000/svg">
<g id="#019ca8ff">
<path fill="#019ca8" opacity="1.00" d=" M 63.67 0.00 L 64.41 0.00 C 75.16 0.37 85.82 4.82 93.07 12.88 C 100.78 21.12 104.64 32.75 103.36 43.96 C 102.16 56.55 94.30 68.19 83.27 74.30 C 78.41 77.13 72.88 78.46 67.37 79.31 C 67.37 81.45 67.37 83.60 67.38 85.75 C 78.26 85.76 89.15 85.74 100.04 85.74 C 103.78 85.68 107.95 86.45 110.34 89.61 C 113.44 93.37 112.67 98.57 112.83 103.09 C 115.73 103.51 121.01 101.96 121.68 106.08 C 122.05 112.06 121.87 118.07 121.79 124.06 C 121.90 125.65 120.74 126.82 119.85 128.00 L 99.39 128.00 C 96.32 126.45 97.04 122.78 96.94 119.96 C 97.12 115.06 96.56 110.09 97.30 105.23 C 98.88 102.05 103.24 103.56 106.07 103.10 C 105.57 99.72 107.61 93.72 103.02 92.67 C 91.15 92.23 79.25 92.63 67.38 92.50 C 67.37 96.03 67.38 99.55 67.37 103.08 C 70.17 103.57 74.39 102.08 76.06 105.13 C 76.87 109.69 76.28 114.36 76.47 118.97 C 76.36 122.06 77.10 125.74 74.42 128.00 L 53.96 128.00 C 53.15 127.09 51.68 126.45 51.72 125.05 C 51.34 119.70 51.62 114.33 51.54 108.97 C 51.66 107.10 51.34 104.44 53.48 103.57 C 55.81 102.99 58.25 103.21 60.63 103.08 C 60.62 99.55 60.62 96.03 60.62 92.50 C 48.74 92.64 36.83 92.22 24.96 92.68 C 20.39 93.76 22.43 99.72 21.93 103.10 C 24.76 103.56 29.13 102.05 30.70 105.24 C 31.43 111.16 30.92 117.18 31.02 123.14 C 31.22 125.05 30.36 126.73 28.99 128.00 L 8.41 128.00 C 5.37 125.96 6.25 122.10 6.12 119.00 C 6.30 114.45 5.75 109.85 6.48 105.34 C 7.91 102.04 12.37 103.56 15.17 103.09 C 15.30 98.38 14.53 92.84 18.09 89.11 C 20.55 86.30 24.45 85.72 27.99 85.74 C 38.86 85.74 49.74 85.76 60.62 85.75 C 60.62 83.60 60.63 81.45 60.63 79.31 C 54.14 78.39 47.68 76.51 42.23 72.77 C 32.22 66.21 25.38 54.92 24.54 42.95 C 23.38 30.15 29.03 17.05 39.04 9.02 C 45.89 3.24 54.79 0.38 63.67 0.00 M 56.46 7.73 C 47.69 9.75 39.91 15.58 35.48 23.42 C 31.15 30.88 30.01 40.09 32.31 48.39 C 34.66 57.19 40.94 64.80 49.02 68.95 C 57.53 73.40 68.01 73.73 76.84 69.97 C 90.26 64.43 98.91 49.34 96.50 34.95 C 95.12 25.00 88.82 15.87 80.02 11.03 C 72.95 7.03 64.36 5.87 56.46 7.73 M 12.91 109.94 C 12.91 113.71 12.91 117.48 12.91 121.25 C 16.70 121.25 20.49 121.25 24.28 121.25 C 24.28 117.48 24.28 113.71 24.28 109.94 C 20.49 109.94 16.70 109.94 12.91 109.94 M 58.31 109.94 C 58.31 113.71 58.31 117.48 58.31 121.25 C 62.10 121.25 65.90 121.25 69.69 121.25 C 69.69 117.48 69.69 113.71 69.69 109.94 C 65.90 109.94 62.10 109.94 58.31 109.94 M 103.72 109.94 C 103.72 113.71 103.72 117.48 103.72 121.25 C 107.51 121.25 111.30 121.25 115.09 121.25 C 115.09 117.48 115.09 113.71 115.09 109.94 C 111.30 109.94 107.51 109.94 103.72 109.94 Z" />
<path fill="#019ca8" opacity="1.00" d=" M 56.39 12.50 C 70.16 8.29 86.01 16.57 90.60 30.16 C 95.46 42.84 89.49 58.34 77.46 64.57 C 69.03 69.23 58.17 69.09 49.87 64.19 C 41.05 59.18 35.36 49.16 35.75 38.99 C 35.85 26.89 44.73 15.60 56.39 12.50 M 42.67 35.83 C 44.31 36.71 46.91 37.62 46.43 39.99 C 46.50 42.14 44.03 42.68 42.63 43.67 C 44.48 52.29 51.48 59.31 60.16 61.04 C 61.04 59.46 61.75 57.01 64.05 57.26 C 66.30 57.08 66.95 59.48 67.84 61.03 C 76.53 59.35 83.50 52.28 85.37 43.67 C 83.99 42.67 81.50 42.16 81.57 40.01 C 81.07 37.63 83.69 36.71 85.33 35.83 C 83.61 27.16 76.53 20.15 67.89 18.36 C 66.99 19.92 66.29 22.32 64.03 22.20 C 61.75 22.36 61.00 19.95 60.11 18.36 C 51.47 20.15 44.39 27.16 42.67 35.83 Z" />
<path fill="#019ca8" opacity="1.00" d=" M 60.80 26.99 C 61.22 23.65 66.73 23.62 67.20 26.96 C 67.60 30.80 67.31 34.68 67.37 38.54 C 69.93 38.58 72.51 38.39 75.05 38.79 C 78.02 39.61 77.94 44.47 74.89 45.08 C 71.27 45.54 67.59 45.38 63.95 45.22 C 62.24 45.27 60.65 43.81 60.72 42.07 C 60.58 37.05 60.44 32.00 60.80 26.99 Z" />
</g>
</svg>
