<?xml version="1.0" encoding="UTF-8" ?>
<!DOCTYPE svg PUBLIC "-//W3C//DTD SVG 1.1//EN" "http://www.w3.org/Graphics/SVG/1.1/DTD/svg11.dtd">
<svg width="128pt" height="128pt" viewBox="0 0 128 128" version="1.1" xmlns="http://www.w3.org/2000/svg">
<g id="#019ca8ff">
<path fill="#019ca8" opacity="1.00" d=" M 54.87 0.00 L 55.29 0.00 C 56.41 0.28 57.39 0.82 58.23 1.61 C 65.29 8.46 70.14 17.24 73.58 26.38 C 74.17 23.04 74.44 19.63 75.47 16.39 C 76.51 14.15 79.54 14.05 80.77 16.20 C 87.66 24.83 93.68 34.81 95.03 45.98 C 96.26 55.08 93.41 64.25 89.12 72.18 C 84.47 78.81 77.77 85.75 69.01 85.44 C 63.13 85.18 56.87 86.47 51.38 83.80 C 43.85 80.48 36.94 74.82 33.81 67.03 C 30.83 60.54 31.19 52.98 33.20 46.25 C 35.36 38.85 40.85 32.80 42.15 25.09 C 42.27 23.16 43.86 21.37 45.93 21.88 C 49.44 23.80 49.68 28.25 50.71 31.67 C 52.76 21.79 55.27 11.73 53.27 1.60 C 53.67 1.20 54.47 0.40 54.87 0.00 Z" />
<path fill="#019ca8" opacity="1.00" d=" M 3.41 59.39 C 6.72 58.69 10.11 58.79 13.47 58.86 C 13.47 65.94 13.47 73.03 13.47 80.12 C 9.93 80.12 6.39 80.12 2.85 80.12 C 3.12 73.22 2.21 66.22 3.41 59.39 Z" />
<path fill="#019ca8" opacity="1.00" d=" M 18.79 58.82 C 21.45 58.78 24.11 58.84 26.75 59.24 C 28.24 66.85 31.03 74.30 36.31 80.13 C 30.47 80.12 24.63 80.13 18.78 80.12 C 18.78 73.02 18.78 65.92 18.79 58.82 Z" />
<path fill="#019ca8" opacity="1.00" d=" M 99.59 61.38 C 101.02 57.43 106.06 59.22 109.21 58.85 C 109.22 65.94 109.22 73.03 109.21 80.12 C 102.73 80.11 96.25 80.15 89.77 80.09 C 94.75 74.92 97.59 68.17 99.59 61.38 Z" />
<path fill="#019ca8" opacity="1.00" d=" M 114.53 58.86 C 117.90 58.81 121.31 58.64 124.62 59.41 C 125.75 66.25 124.90 73.22 125.15 80.12 C 121.61 80.12 118.07 80.12 114.53 80.12 C 114.53 73.03 114.53 65.94 114.53 58.86 Z" />
<path fill="#019ca8" opacity="1.00" d=" M 2.85 85.44 C 15.25 85.43 27.65 85.44 40.06 85.44 C 40.06 90.76 40.06 96.08 40.06 101.40 C 27.65 101.41 15.25 101.41 2.85 101.40 C 2.84 96.08 2.84 90.76 2.85 85.44 Z" />
<path fill="#019ca8" opacity="1.00" d=" M 87.94 85.44 C 100.35 85.44 112.75 85.43 125.15 85.44 C 125.16 90.76 125.16 96.08 125.15 101.40 C 112.75 101.41 100.35 101.41 87.94 101.40 C 87.94 96.08 87.94 90.76 87.94 85.44 Z" />
<path fill="#019ca8" opacity="1.00" d=" M 45.37 87.04 C 49.44 88.82 53.53 90.80 58.00 91.27 C 66.35 91.37 75.49 92.37 82.62 87.04 C 82.62 92.00 82.62 96.97 82.63 101.93 C 70.21 101.94 57.79 101.94 45.37 101.93 C 45.38 96.97 45.38 92.01 45.37 87.04 Z" />
<path fill="#019ca8" opacity="1.00" d=" M 2.85 106.72 C 8.16 106.72 13.47 106.72 18.78 106.72 C 18.78 113.82 18.78 120.91 18.78 128.00 L 5.41 128.00 C 4.91 127.82 3.90 127.46 3.39 127.28 C 2.23 120.50 3.11 113.57 2.85 106.72 Z" />
<path fill="#019ca8" opacity="1.00" d=" M 24.10 106.72 C 36.51 106.72 48.92 106.71 61.34 106.72 C 61.35 113.82 61.34 120.91 61.34 128.00 L 24.09 128.00 C 24.09 120.91 24.09 113.81 24.10 106.72 Z" />
<path fill="#019ca8" opacity="1.00" d=" M 66.66 106.72 C 79.08 106.71 91.49 106.72 103.90 106.72 C 103.91 113.81 103.91 120.91 103.91 128.00 L 66.66 128.00 C 66.66 120.91 66.65 113.82 66.66 106.72 Z" />
<path fill="#019ca8" opacity="1.00" d=" M 109.22 106.72 C 114.53 106.72 119.84 106.72 125.15 106.72 C 124.89 113.56 125.77 120.49 124.61 127.27 C 124.12 127.45 123.13 127.82 122.63 128.00 L 109.22 128.00 C 109.22 120.91 109.21 113.82 109.22 106.72 Z" />
</g>
</svg>
