<?xml version="1.0" encoding="UTF-8" ?>
<!DOCTYPE svg PUBLIC "-//W3C//DTD SVG 1.1//EN" "http://www.w3.org/Graphics/SVG/1.1/DTD/svg11.dtd">
<svg width="128pt" height="128pt" viewBox="0 0 128 128" version="1.1" xmlns="http://www.w3.org/2000/svg">
<g id="#019ca8ff">
<path fill="#019ca8" opacity="1.00" d=" M 6.76 19.70 C 8.85 17.47 12.04 17.05 14.94 17.05 C 47.65 17.07 80.35 17.07 113.05 17.05 C 115.95 17.05 119.14 17.47 121.23 19.69 C 123.42 21.84 123.73 25.06 123.74 27.96 C 123.70 51.10 123.72 74.24 123.72 97.38 C 125.18 98.26 126.64 99.15 128.00 100.17 L 128.00 108.62 C 126.84 110.22 125.10 111.17 123.09 110.94 C 83.70 110.94 44.29 110.94 4.90 110.94 C 2.98 111.14 1.33 110.20 0.00 108.93 L 0.00 100.36 C 1.35 99.25 2.81 98.28 4.26 97.31 C 4.29 74.16 4.29 51.02 4.26 27.88 C 4.27 25.01 4.60 21.83 6.76 19.70 M 13.37 26.27 C 12.67 27.76 12.86 29.45 12.79 31.05 C 12.84 50.37 12.83 69.69 12.79 89.01 C 12.82 90.51 12.78 92.10 13.55 93.45 C 14.99 93.87 16.50 93.88 17.98 93.90 C 49.01 93.85 80.04 93.89 111.07 93.88 C 112.22 93.88 113.34 93.74 114.45 93.45 C 115.21 92.11 115.18 90.54 115.21 89.05 C 115.18 69.71 115.16 50.37 115.21 31.02 C 115.17 29.43 115.26 27.77 114.66 26.26 C 113.25 25.47 111.58 25.63 110.03 25.57 C 79.36 25.61 48.68 25.61 18.01 25.57 C 16.46 25.65 14.77 25.43 13.37 26.27 M 4.28 102.40 C 4.28 103.82 4.28 105.24 4.28 106.66 C 44.09 106.66 83.91 106.66 123.72 106.66 C 123.72 105.24 123.72 103.82 123.72 102.40 C 108.50 102.46 93.28 102.30 78.07 102.49 C 76.52 103.44 74.92 104.54 73.02 104.49 C 67.64 104.57 62.26 104.61 56.89 104.47 C 54.47 104.35 52.60 102.31 50.14 102.42 C 34.85 102.38 19.57 102.42 4.28 102.40 Z" />
<path fill="#019ca8" opacity="1.00" d=" M 17.06 29.88 C 48.35 29.88 79.65 29.87 110.94 29.88 C 110.94 49.78 110.94 69.69 110.94 89.59 C 79.65 89.59 48.35 89.59 17.06 89.59 C 17.06 69.69 17.06 49.78 17.06 29.88 M 26.01 50.16 C 25.15 53.37 25.75 56.77 25.59 60.06 C 25.75 63.29 25.10 66.67 26.17 69.79 C 27.37 70.57 28.48 70.46 29.52 69.46 C 30.10 66.98 29.84 64.40 29.91 61.88 C 32.73 61.87 35.55 61.87 38.38 61.88 C 38.56 64.53 37.90 67.41 39.10 69.89 C 40.61 71.07 42.77 69.79 42.58 67.94 C 42.71 62.38 42.79 56.80 42.54 51.25 C 42.66 49.35 39.93 48.24 38.96 50.01 C 37.90 52.34 38.59 55.10 38.38 57.60 C 35.55 57.59 32.73 57.59 29.91 57.60 C 29.79 54.95 30.23 52.19 29.32 49.65 C 28.15 49.17 26.68 48.66 26.01 50.16 M 46.47 52.27 C 48.67 53.11 51.01 53.41 53.35 53.50 C 53.45 58.52 53.09 63.56 53.50 68.57 C 53.61 70.87 57.45 70.90 57.42 68.52 C 57.86 63.52 57.48 58.48 57.58 53.46 C 59.57 53.31 61.69 53.54 63.53 52.62 C 64.29 51.24 63.79 49.05 61.89 49.20 C 57.63 48.92 53.34 48.94 49.09 49.19 C 47.36 49.15 47.21 51.19 46.47 52.27 M 69.15 52.78 C 70.87 53.59 72.84 53.28 74.67 53.46 C 74.80 58.59 74.31 63.76 74.91 68.86 C 75.07 70.89 78.60 70.71 78.73 68.79 C 79.23 63.70 78.81 58.57 78.94 53.46 C 81.09 53.04 85.03 54.22 85.33 51.09 C 85.04 48.90 82.75 49.12 81.10 49.06 C 77.42 49.08 73.73 48.85 70.07 49.24 C 68.35 49.27 67.63 51.95 69.15 52.78 M 90.41 49.46 C 89.20 51.43 89.68 53.84 89.57 56.03 C 89.73 60.30 89.27 64.60 89.84 68.84 C 90.02 70.66 92.52 70.67 93.50 69.49 C 94.02 67.43 93.86 65.27 93.94 63.16 C 98.64 63.56 104.26 60.43 103.30 55.03 C 102.53 48.97 95.17 48.16 90.41 49.46 Z" />
<path fill="#019ca8" opacity="1.00" d=" M 93.89 53.10 C 95.84 53.51 99.03 53.26 99.12 56.01 C 99.01 58.74 95.83 58.49 93.89 58.89 C 93.88 56.96 93.88 55.03 93.89 53.10 Z" />
</g>
</svg>
