<?xml version="1.0" encoding="UTF-8" ?>
<!DOCTYPE svg PUBLIC "-//W3C//DTD SVG 1.1//EN" "http://www.w3.org/Graphics/SVG/1.1/DTD/svg11.dtd">
<svg width="128pt" height="128pt" viewBox="0 0 128 128" version="1.1" xmlns="http://www.w3.org/2000/svg">
<g id="#019ca8ff">
<path fill="#019ca8" opacity="1.00" d=" M 62.79 0.00 L 65.02 0.00 C 81.44 0.33 97.66 7.09 109.19 18.82 C 120.87 30.31 127.61 46.45 128.00 62.79 L 128.00 65.04 C 127.66 81.48 120.88 97.71 109.14 109.24 C 97.65 120.89 81.53 127.62 65.20 128.00 L 62.54 128.00 C 46.28 127.54 30.26 120.81 18.82 109.20 C 7.14 97.71 0.39 81.57 0.00 65.22 L 0.00 63.01 C 0.32 46.59 7.08 30.36 18.81 18.82 C 30.30 7.14 46.44 0.39 62.79 0.00 M 53.39 15.62 C 40.27 18.60 28.44 26.97 21.59 38.59 C 16.53 47.09 13.84 57.12 14.50 67.03 C 15.58 83.02 24.75 98.30 38.63 106.43 C 50.11 113.29 64.56 115.72 77.43 111.56 C 89.24 108.37 99.59 100.41 106.04 90.05 C 113.21 78.38 115.83 63.58 111.51 50.41 C 108.30 38.66 100.36 28.38 90.05 21.96 C 79.24 15.33 65.82 12.60 53.39 15.62 Z" />
<path fill="#019ca8" opacity="1.00" d=" M 61.41 23.67 C 67.06 21.47 73.51 27.25 71.81 33.11 C 70.82 38.89 62.87 41.36 58.67 37.32 C 54.04 33.59 55.71 25.32 61.41 23.67 Z" />
<path fill="#019ca8" opacity="1.00" d=" M 38.20 33.29 C 42.54 31.61 47.81 34.56 48.70 39.10 C 49.87 43.50 46.49 48.33 41.98 48.82 C 37.79 49.54 33.46 46.28 32.94 42.07 C 32.27 38.37 34.68 34.50 38.20 33.29 Z" />
<path fill="#019ca8" opacity="1.00" d=" M 84.20 33.35 C 89.64 30.93 96.20 36.24 95.07 42.04 C 94.49 47.71 87.12 50.97 82.58 47.47 C 77.23 44.22 78.35 35.39 84.20 33.35 Z" />
<path fill="#019ca8" opacity="1.00" d=" M 62.35 54.47 C 63.68 53.37 65.76 53.97 66.41 55.52 C 70.07 62.48 73.74 69.49 76.44 76.89 C 77.81 80.65 78.52 84.96 76.75 88.72 C 74.30 94.74 67.26 98.38 60.93 96.80 C 54.72 95.50 49.86 89.43 50.18 83.05 C 50.63 77.79 53.07 73.01 55.17 68.26 C 57.49 63.64 59.52 58.80 62.35 54.47 Z" />
<path fill="#019ca8" opacity="1.00" d=" M 28.31 56.54 C 33.68 54.13 40.30 59.18 39.27 65.00 C 38.83 70.91 31.06 74.18 26.50 70.43 C 21.48 67.08 22.61 58.51 28.31 56.54 Z" />
<path fill="#019ca8" opacity="1.00" d=" M 93.52 56.62 C 98.92 54.02 105.70 59.10 104.68 65.00 C 104.22 71.02 96.25 74.22 91.72 70.29 C 86.96 66.90 88.05 58.68 93.52 56.62 Z" />
</g>
</svg>
