<?xml version="1.0" encoding="UTF-8" ?>
<!DOCTYPE svg PUBLIC "-//W3C//DTD SVG 1.1//EN" "http://www.w3.org/Graphics/SVG/1.1/DTD/svg11.dtd">
<svg width="88pt" height="54pt" viewBox="0 0 88 54" version="1.1" xmlns="http://www.w3.org/2000/svg">
<g id="#808080f9">
<path fill="#808080" opacity="0.98" d=" M 42.28 17.96 C 46.39 17.91 50.88 17.21 54.40 19.86 C 53.84 20.33 52.71 21.27 52.15 21.74 C 49.17 20.06 45.69 20.77 42.45 20.81 C 42.40 20.09 42.32 18.67 42.28 17.96 Z" />
<path fill="#808080" opacity="0.98" d=" M 18.10 22.34 C 18.97 21.83 19.84 21.33 20.71 20.81 C 20.78 25.87 20.82 30.93 20.68 35.99 C 20.06 35.98 18.82 35.96 18.20 35.96 C 18.05 31.42 18.15 26.88 18.10 22.34 Z" />
<path fill="#808080" opacity="0.98" d=" M 45.41 23.43 C 46.35 22.90 47.28 22.37 48.21 21.84 C 48.19 26.51 48.19 31.18 48.20 35.85 C 47.53 35.90 46.18 36.00 45.51 36.05 C 45.39 31.84 45.47 27.63 45.41 23.43 Z" />
<path fill="#808080" opacity="0.98" d=" M 82.67 23.39 C 83.35 22.99 84.72 22.18 85.40 21.78 C 85.40 26.53 85.45 31.27 85.36 36.02 C 84.70 36.00 83.37 35.95 82.70 35.93 C 82.67 31.75 82.69 27.57 82.67 23.39 Z" />
<path fill="#808080" opacity="0.98" d=" M 25.23 34.57 C 22.36 30.94 25.47 25.05 29.99 25.10 C 33.27 24.78 36.38 27.65 36.40 30.92 C 36.56 34.07 36.40 37.22 36.45 40.37 C 35.75 40.79 34.37 41.62 33.68 42.03 C 33.64 40.42 33.60 38.81 33.56 37.20 C 30.57 37.49 26.97 37.49 25.23 34.57 M 27.20 32.54 C 28.20 35.16 31.41 34.42 33.60 34.65 C 33.48 32.38 34.25 29.41 31.85 28.06 C 29.24 26.50 25.68 29.91 27.20 32.54 Z" />
<path fill="#808080" opacity="0.98" d=" M 39.67 26.49 C 40.36 26.08 41.75 25.25 42.44 24.83 C 42.55 30.00 42.43 35.17 42.54 40.34 C 41.83 40.76 40.40 41.60 39.69 42.02 C 39.67 36.84 39.69 31.67 39.67 26.49 Z" />
<path fill="#808080" opacity="0.98" d=" M 53.26 26.39 C 53.84 26.01 55.01 25.24 55.59 24.85 C 55.72 27.59 55.73 30.33 55.71 33.07 C 62.68 33.07 69.64 33.08 76.60 33.07 C 76.57 31.47 76.55 29.86 76.52 28.25 C 77.25 27.82 78.70 26.95 79.43 26.52 C 79.41 29.68 79.40 32.83 79.38 35.99 C 71.50 35.69 63.61 35.93 55.73 35.84 C 55.70 37.43 55.68 39.02 55.65 40.61 C 54.78 41.00 53.90 41.40 53.04 41.79 C 53.24 36.66 52.79 31.50 53.26 26.39 Z" />
<path fill="#808080" opacity="0.98" d=" M 12.19 28.33 C 13.09 27.87 14.00 27.41 14.90 26.94 C 14.75 31.55 16.24 37.68 11.57 40.62 C 7.13 43.80 0.56 40.42 0.00 35.11 L 0.00 28.57 C 0.67 28.11 2.02 27.18 2.69 26.71 C 2.78 29.51 2.66 32.32 2.94 35.11 C 3.30 38.31 7.57 40.43 10.16 38.21 C 13.33 35.96 11.91 31.61 12.19 28.33 Z" />
<path fill="#808080" opacity="0.98" d=" M 5.51 30.54 C 5.93 29.99 6.76 28.89 7.18 28.34 C 7.76 28.82 8.92 29.80 9.50 30.29 C 8.95 31.02 8.39 31.76 7.84 32.49 C 7.26 32.01 6.09 31.03 5.51 30.54 Z" />
<path fill="#808080" opacity="0.98" d=" M 65.77 39.28 C 66.31 38.80 67.38 37.86 67.92 37.39 C 68.55 38.15 69.18 38.92 69.82 39.68 C 69.35 40.18 68.41 41.18 67.94 41.69 C 67.21 40.88 66.49 40.08 65.77 39.28 Z" />
</g>
</svg>
