<?xml version="1.0" encoding="UTF-8" ?>
<!DOCTYPE svg PUBLIC "-//W3C//DTD SVG 1.1//EN" "http://www.w3.org/Graphics/SVG/1.1/DTD/svg11.dtd">
<svg width="128pt" height="128pt" viewBox="0 0 128 128" version="1.1" xmlns="http://www.w3.org/2000/svg">
<g id="#019ca8ff">
<path fill="#019ca8" opacity="1.00" d=" M 63.15 0.00 L 64.35 0.00 C 71.98 0.35 79.67 1.44 86.79 4.33 C 101.84 9.99 114.28 21.67 121.45 35.99 C 117.87 36.00 114.30 36.00 110.73 36.00 C 108.18 32.06 105.28 28.36 101.99 25.01 C 100.18 26.25 98.37 27.50 96.57 28.75 C 97.41 31.17 98.27 33.58 99.12 36.00 C 96.59 36.00 94.07 36.00 91.55 35.99 C 91.10 34.71 90.65 33.42 90.19 32.14 C 85.64 33.89 81.04 36.14 76.05 36.02 C 68.02 35.99 59.98 35.99 51.95 36.02 C 47.00 36.15 42.47 33.88 37.94 32.20 C 37.49 33.46 37.05 34.73 36.60 35.99 C 34.03 36.00 31.46 36.00 28.88 36.00 C 29.73 33.58 30.58 31.17 31.43 28.75 C 29.63 27.50 27.82 26.25 26.01 25.01 C 22.72 28.36 19.82 32.05 17.28 36.00 C 13.70 36.00 10.13 36.00 6.55 36.00 C 9.97 29.57 14.11 23.46 19.38 18.40 C 30.88 6.89 46.93 0.40 63.15 0.00 M 57.88 30.43 C 61.96 30.83 66.07 30.83 70.15 30.44 C 68.37 23.20 68.35 15.16 64.01 8.82 C 59.66 15.16 59.68 23.20 57.88 30.43 M 41.00 25.78 C 44.19 27.15 47.47 28.29 50.81 29.22 C 51.79 22.93 53.11 16.70 55.07 10.64 C 48.94 14.11 44.40 19.71 41.00 25.78 M 72.92 10.53 C 74.90 16.63 76.21 22.89 77.19 29.22 C 80.60 28.27 83.94 27.10 87.18 25.69 C 83.75 19.59 79.16 13.92 72.92 10.53 M 31.56 20.29 C 32.56 20.96 33.56 21.63 34.57 22.31 C 35.96 20.13 37.35 17.96 38.73 15.77 C 36.33 17.26 33.94 18.77 31.56 20.29 M 89.30 15.77 C 90.67 17.95 92.05 20.13 93.44 22.30 C 94.43 21.63 95.43 20.96 96.43 20.29 C 94.06 18.77 91.69 17.26 89.30 15.77 Z" />
<path fill="#019ca8" opacity="1.00" d=" M 4.38 51.29 C 7.07 51.27 9.75 51.27 12.44 51.29 C 13.67 57.59 14.86 63.91 15.95 70.24 C 17.33 63.89 18.91 57.59 20.59 51.32 C 22.66 51.31 24.74 51.31 26.81 51.31 C 28.45 57.59 29.98 63.90 31.30 70.25 C 32.30 63.90 33.56 57.59 35.01 51.32 C 37.58 51.31 40.16 51.31 42.75 51.32 C 40.14 59.79 37.55 68.26 34.92 76.72 C 32.45 76.72 29.97 76.72 27.50 76.71 C 25.90 71.10 24.52 65.43 23.45 59.70 C 22.35 65.45 20.86 71.11 19.18 76.72 C 16.71 76.72 14.23 76.72 11.76 76.72 C 9.29 68.24 6.84 59.77 4.38 51.29 Z" />
<path fill="#019ca8" opacity="1.00" d=" M 44.82 51.29 C 47.50 51.28 50.18 51.27 52.86 51.28 C 54.15 57.60 55.32 63.95 56.40 70.31 C 57.76 63.92 59.33 57.58 61.05 51.28 C 63.12 51.28 65.20 51.28 67.27 51.28 C 68.94 57.59 70.44 63.94 71.76 70.33 C 72.72 63.93 74.00 57.59 75.44 51.28 C 78.02 51.27 80.60 51.28 83.18 51.29 C 80.59 59.77 77.98 68.24 75.37 76.72 C 72.90 76.72 70.42 76.72 67.95 76.72 C 66.35 71.09 64.98 65.41 63.89 59.67 C 62.82 65.43 61.33 71.10 59.63 76.71 C 57.15 76.72 54.67 76.72 52.19 76.72 C 49.73 68.25 47.27 59.77 44.82 51.29 Z" />
<path fill="#019ca8" opacity="1.00" d=" M 85.25 51.29 C 87.95 51.27 90.65 51.27 93.34 51.29 C 94.60 57.59 95.80 63.91 96.85 70.25 C 98.23 63.89 99.83 57.58 101.50 51.28 C 103.58 51.28 105.66 51.28 107.75 51.28 C 109.38 57.59 110.86 63.94 112.23 70.31 C 113.20 63.92 114.46 57.58 115.88 51.28 C 118.46 51.27 121.04 51.28 123.62 51.29 C 121.03 59.77 118.44 68.25 115.83 76.72 C 113.36 76.72 110.88 76.72 108.40 76.71 C 106.80 71.09 105.41 65.41 104.36 59.65 C 103.28 65.42 101.82 71.11 100.09 76.72 C 97.61 76.72 95.14 76.72 92.67 76.72 C 90.18 68.25 87.72 59.76 85.25 51.29 Z" />
<path fill="#019ca8" opacity="1.00" d=" M 6.58 92.01 C 10.15 92.00 13.72 92.00 17.29 91.99 C 19.85 95.93 22.73 99.63 26.01 102.99 C 27.82 101.75 29.62 100.50 31.43 99.25 C 30.59 96.83 29.75 94.42 28.92 92.00 C 31.48 92.00 34.04 92.00 36.60 92.01 C 37.06 93.27 37.51 94.54 37.97 95.80 C 42.49 94.12 47.01 91.85 51.95 91.98 C 59.97 92.01 67.99 92.01 76.02 91.98 C 81.03 91.84 85.65 94.11 90.22 95.86 C 90.66 94.58 91.11 93.29 91.55 92.01 C 94.07 92.00 96.59 92.00 99.12 92.00 C 98.27 94.42 97.41 96.83 96.57 99.25 C 98.37 100.50 100.18 101.75 101.99 102.99 C 105.28 99.64 108.18 95.95 110.72 92.00 C 114.30 92.00 117.87 92.00 121.45 92.01 C 117.95 98.68 113.62 104.96 108.10 110.13 C 96.55 121.42 80.58 127.71 64.48 128.00 L 63.17 128.00 C 55.68 127.61 48.15 126.46 41.15 123.65 C 26.15 117.97 13.74 106.30 6.58 92.01 M 57.87 97.57 C 59.69 104.80 59.65 112.85 64.01 119.17 C 68.33 112.83 68.35 104.80 70.14 97.56 C 66.06 97.17 61.95 97.17 57.87 97.57 M 41.00 102.25 C 44.43 108.28 48.92 113.91 55.04 117.37 C 53.07 111.32 51.77 105.10 50.81 98.81 C 47.46 99.71 44.18 100.85 41.00 102.25 M 77.19 98.78 C 76.20 105.11 74.90 111.37 72.92 117.47 C 79.16 114.08 83.74 108.41 87.18 102.31 C 83.94 100.90 80.60 99.72 77.19 98.78 M 31.56 107.71 C 33.94 109.23 36.33 110.74 38.73 112.23 C 37.35 110.04 35.96 107.87 34.57 105.69 C 33.56 106.36 32.56 107.04 31.56 107.71 M 93.43 105.69 C 92.05 107.87 90.67 110.05 89.30 112.23 C 91.69 110.74 94.06 109.23 96.43 107.71 C 95.43 107.04 94.43 106.36 93.43 105.69 Z" />
</g>
</svg>
