<?xml version="1.0" encoding="UTF-8" ?>
<!DOCTYPE svg PUBLIC "-//W3C//DTD SVG 1.1//EN" "http://www.w3.org/Graphics/SVG/1.1/DTD/svg11.dtd">
<svg width="128pt" height="128pt" viewBox="0 0 128 128" version="1.1" xmlns="http://www.w3.org/2000/svg">
<g id="#019ca8ff">
<path fill="#019ca8" opacity="1.00" d=" M 63.54 0.00 L 64.26 0.00 C 68.29 0.52 71.19 3.68 74.85 5.15 C 82.91 8.52 92.30 8.57 100.44 5.45 C 103.86 4.20 106.58 1.62 109.97 0.33 C 114.73 -1.17 120.06 2.88 119.93 7.86 C 120.11 27.24 119.93 46.64 120.02 66.03 C 120.06 73.21 119.71 80.55 117.18 87.35 C 112.71 99.90 102.79 109.79 91.58 116.61 C 83.22 121.74 74.01 125.45 64.55 128.00 L 63.68 128.00 C 54.34 125.64 45.31 121.91 37.02 116.99 C 25.57 110.11 15.36 100.14 10.82 87.34 C 8.28 80.53 7.94 73.18 7.98 65.99 C 8.07 46.62 7.89 27.26 8.07 7.89 C 7.92 2.93 13.20 -1.12 17.96 0.30 C 21.39 1.56 24.11 4.20 27.56 5.45 C 35.46 8.50 44.52 8.49 52.43 5.45 C 56.35 4.06 59.37 0.75 63.54 0.00 M 51.74 37.80 C 47.25 42.74 47.99 49.75 47.99 55.91 C 44.56 56.31 41.11 58.45 40.36 62.02 C 39.63 66.30 40.16 70.67 39.99 74.98 C 40.04 78.58 39.51 82.87 42.41 85.60 C 44.58 87.96 47.99 88.05 50.96 88.02 C 60.68 87.91 70.40 88.14 80.12 87.92 C 84.29 87.93 87.95 84.26 87.92 80.09 C 88.01 74.38 88.18 68.64 87.81 62.94 C 87.46 58.97 83.77 56.28 80.01 55.91 C 80.00 49.76 80.76 42.74 76.27 37.80 C 70.36 30.21 57.65 30.19 51.74 37.80 Z" />
<path fill="#019ca8" opacity="1.00" d=" M 58.41 42.41 C 61.86 38.72 68.63 39.65 70.92 44.17 C 72.69 47.83 71.80 52.08 71.99 56.00 C 66.66 56.00 61.34 56.00 56.01 56.00 C 56.28 51.48 54.86 46.00 58.41 42.41 Z" />
<path fill="#019ca8" opacity="1.00" d=" M 62.32 68.41 C 64.79 67.11 68.14 69.20 67.94 72.01 C 68.16 75.12 64.11 77.15 61.70 75.22 C 59.24 73.64 59.63 69.52 62.32 68.41 Z" />
</g>
</svg>
