<?xml version="1.0" encoding="UTF-8" ?>
<!DOCTYPE svg PUBLIC "-//W3C//DTD SVG 1.1//EN" "http://www.w3.org/Graphics/SVG/1.1/DTD/svg11.dtd">
<svg width="492pt" height="542pt" viewBox="0 0 492 542" version="1.1" xmlns="http://www.w3.org/2000/svg">
<g id="#019ca8ff">
<path fill="#019ca8" opacity="1.00" d=" M 233.44 0.00 L 259.11 0.00 C 275.88 23.99 284.42 52.34 292.95 80.01 C 294.21 84.51 296.99 89.22 295.03 93.95 C 293.22 99.58 287.63 102.59 282.35 104.27 C 267.56 109.49 251.56 110.19 236.04 108.98 C 225.77 108.29 215.26 107.27 205.70 103.17 C 200.86 101.20 196.92 96.46 197.22 91.03 C 197.66 83.19 199.94 75.58 202.42 68.17 C 206.65 56.20 211.25 44.38 215.68 32.49 C 220.06 20.92 225.32 9.46 233.44 0.00 Z" />
<path fill="#019ca8" opacity="1.00" d=" M 290.94 216.17 C 306.38 212.49 319.98 204.03 334.07 197.09 C 342.57 212.73 346.47 230.27 353.40 246.57 C 358.34 260.60 365.55 274.09 367.13 289.09 C 367.75 291.88 365.55 294.13 364.21 296.34 C 355.66 308.29 342.49 316.07 328.93 321.09 C 309.65 326.51 289.74 329.22 269.95 332.00 C 246.98 335.83 223.58 332.91 200.81 329.10 C 184.16 326.21 167.26 323.11 151.84 315.89 C 142.85 311.58 134.48 305.58 128.44 297.56 C 124.75 292.54 124.93 285.80 126.43 280.04 C 128.12 273.83 130.47 267.83 132.83 261.86 C 141.06 241.15 149.17 220.34 155.19 198.86 C 175.14 203.49 192.17 217.14 212.92 218.91 C 238.89 220.32 265.43 222.60 290.94 216.17 Z" />
<path fill="#019ca8" opacity="1.00" d=" M 59.09 351.21 C 72.26 344.68 87.54 343.72 101.89 345.99 C 100.49 356.64 95.54 366.40 93.95 377.01 C 93.05 382.74 93.75 388.97 97.13 393.83 C 112.08 413.96 135.27 426.27 159.11 432.66 C 181.21 438.50 204.11 441.51 226.97 441.46 C 249.34 441.35 271.77 442.14 294.06 439.90 C 314.47 437.93 334.89 433.84 353.73 425.56 C 363.42 420.68 372.83 415.09 381.21 408.18 C 389.11 401.45 396.45 393.21 399.58 383.15 C 398.04 369.98 392.17 357.84 388.38 345.24 C 398.97 344.83 409.70 344.72 420.12 346.94 C 429.60 348.90 439.04 353.09 445.40 360.63 C 449.87 365.71 451.97 372.26 454.30 378.48 C 468.62 417.51 475.74 458.75 490.03 497.79 C 490.53 499.04 491.14 500.24 491.86 501.41 C 491.89 501.51 491.96 501.70 492.00 501.80 L 492.00 535.18 C 489.88 534.09 487.50 532.89 485.07 533.72 C 480.91 534.71 478.10 538.24 476.48 542.00 L 17.00 542.00 C 10.91 537.06 5.46 531.40 0.00 525.79 L 0.00 501.36 L 0.40 501.56 L 0.55 501.16 C 16.29 459.35 24.48 415.18 39.09 373.00 C 42.53 363.43 50.05 355.70 59.09 351.21 Z" />
</g>
<g id="#80ced4ff">
<path fill="#80ced4" opacity="1.00" d=" M 0.00 500.88 L 0.55 501.16 L 0.40 501.56 L 0.00 501.36 L 0.00 500.88 Z" />
</g>
<g id="#90d4d9ff">
<path fill="#90d4d9" opacity="1.00" d=" M 491.86 501.41 L 492.00 501.65 L 492.00 501.80 C 491.96 501.70 491.89 501.51 491.86 501.41 Z" />
</g>
<g id="#ffffffff">
<path fill="#ffffff" opacity="1.00" d=" M 0.00 525.79 C 5.46 531.40 10.91 537.06 17.00 542.00 L 0.00 542.00 L 0.00 525.79 Z" />
<path fill="#ffffff" opacity="1.00" d=" M 476.48 542.00 C 478.10 538.24 480.91 534.71 485.07 533.72 C 487.50 532.89 489.88 534.09 492.00 535.18 L 492.00 542.00 L 476.48 542.00 Z" />
</g>
</svg>
