<?xml version="1.0" encoding="UTF-8" ?>
<!DOCTYPE svg PUBLIC "-//W3C//DTD SVG 1.1//EN" "http://www.w3.org/Graphics/SVG/1.1/DTD/svg11.dtd">
<svg width="521pt" height="467pt" viewBox="0 0 521 467" version="1.1" xmlns="http://www.w3.org/2000/svg">
<g id="#039da7ff">
<path fill="#039da7" opacity="1.00" d=" M 0.00 3.26 C 101.01 3.26 202.02 3.26 303.04 3.26 C 375.69 3.30 448.35 3.12 521.00 3.50 L 521.00 121.78 C 495.03 121.15 469.03 121.68 443.04 121.50 C 295.36 121.50 147.68 121.50 0.00 121.50 L 0.00 3.26 Z" />
<path fill="#039da7" opacity="1.00" d=" M 0.00 174.76 C 40.67 174.64 81.35 175.03 122.01 174.50 C 159.25 174.50 196.47 174.98 233.70 175.48 C 234.08 194.90 234.14 214.32 233.47 233.73 C 192.64 233.57 151.81 234.30 110.98 233.77 C 73.99 233.69 36.99 233.76 0.00 233.74 L 0.00 174.76 Z" />
<path fill="#039da7" opacity="1.00" d=" M 287.82 175.82 C 337.51 174.22 387.25 174.28 436.97 174.76 C 464.98 174.76 492.99 174.76 521.00 174.76 L 521.00 233.77 C 443.01 233.41 365.01 234.65 287.04 233.25 C 287.21 225.82 286.95 218.41 286.73 210.99 C 287.31 199.27 286.86 187.52 287.82 175.82 Z" />
<path fill="#039da7" opacity="1.00" d=" M 188.55 291.30 C 214.73 291.00 240.90 291.78 267.07 291.42 C 289.21 290.88 311.35 291.65 333.49 291.51 C 333.53 311.25 333.47 331.00 333.52 350.74 C 284.79 349.91 235.98 352.44 187.29 349.18 C 186.16 329.89 186.78 310.54 188.55 291.30 Z" />
<path fill="#039da7" opacity="1.00" d=" M 376.16 291.46 C 424.44 290.93 472.72 291.56 521.00 291.50 L 521.00 350.74 C 491.34 350.74 461.68 350.74 432.02 350.74 C 413.08 350.83 394.14 350.56 375.23 349.43 C 374.43 330.11 374.50 310.73 376.16 291.46 Z" />
<path fill="#039da7" opacity="1.00" d=" M 0.00 291.73 C 28.98 291.82 57.97 292.40 86.95 291.72 C 106.29 291.75 125.64 291.74 144.98 291.73 C 146.60 310.87 147.23 330.13 146.18 349.33 C 107.82 351.61 69.39 350.64 30.99 350.72 C 20.66 350.12 10.33 350.85 0.00 350.73 L 0.00 291.73 Z" />
<path fill="#039da7" opacity="1.00" d=" M 0.00 409.20 C 19.63 408.12 39.30 408.00 58.96 408.04 C 59.17 427.70 58.38 447.36 58.38 467.00 L 0.00 467.00 L 0.00 409.20 Z" />
<path fill="#039da7" opacity="1.00" d=" M 233.52 408.06 C 251.86 407.96 270.19 408.56 288.51 409.56 C 288.59 428.72 287.91 447.87 286.87 467.00 L 233.28 467.00 C 232.85 447.36 232.95 427.70 233.52 408.06 Z" />
<path fill="#039da7" opacity="1.00" d=" M 463.80 409.07 C 482.85 408.04 501.93 408.05 521.00 408.06 L 521.00 467.00 L 461.47 467.00 C 462.58 447.70 463.05 428.38 463.80 409.07 Z" />
<path fill="#039da7" opacity="1.00" d=" M 117.30 408.82 C 136.50 408.52 155.70 408.55 174.89 409.51 C 175.74 428.66 175.69 447.84 175.51 467.00 L 116.26 467.00 C 116.06 447.60 116.55 428.21 117.30 408.82 Z" />
<path fill="#039da7" opacity="1.00" d=" M 345.04 409.28 C 364.40 408.10 383.81 408.30 403.18 409.21 C 403.96 428.47 404.55 447.74 405.30 467.00 L 346.81 467.00 C 345.72 447.78 344.98 428.54 345.04 409.28 Z" />
</g>
<g id="#326e7194">
<path fill="#326e71" opacity="0.58" d=" M 0.00 291.00 C 48.31 291.43 96.61 290.88 144.92 290.99 L 144.98 291.73 C 125.64 291.74 106.29 291.75 86.95 291.72 C 57.97 292.40 28.98 291.82 0.00 291.73 L 0.00 291.00 Z" />
</g>
</svg>
