<?xml version="1.0" encoding="UTF-8" ?>
<!DOCTYPE svg PUBLIC "-//W3C//DTD SVG 1.1//EN" "http://www.w3.org/Graphics/SVG/1.1/DTD/svg11.dtd">
<svg width="508pt" height="508pt" viewBox="0 0 508 508" version="1.1" xmlns="http://www.w3.org/2000/svg">
<g id="#71c8ceff">
<path fill="#71c8ce" opacity="1.00" d=" M 210.12 0.00 L 211.93 0.00 C 211.39 0.20 210.31 0.61 209.77 0.82 L 210.12 0.00 Z" />
</g>
<g id="#029ea8ff">
<path fill="#029ea8" opacity="1.00" d=" M 211.93 0.00 L 280.26 0.00 C 279.01 68.67 279.68 137.36 279.95 206.04 C 285.75 212.53 292.48 218.22 297.44 225.43 C 300.01 229.22 302.53 233.27 303.18 237.89 C 305.72 254.62 302.79 273.26 291.13 286.15 C 280.25 296.39 264.93 301.61 250.06 300.72 C 239.61 300.26 229.63 295.88 221.47 289.47 C 213.75 282.85 209.34 273.47 203.94 265.06 C 201.89 262.49 202.57 259.12 202.62 256.10 C 202.94 248.53 202.31 240.54 205.57 233.49 C 210.70 223.78 218.75 216.12 226.24 208.25 C 228.77 206.23 227.91 202.77 228.20 199.96 C 228.30 184.69 228.39 169.40 227.68 154.14 C 204.87 159.00 184.99 173.73 171.60 192.56 C 165.80 200.69 160.70 209.50 157.98 219.18 C 153.64 234.39 154.11 250.42 155.00 266.06 C 159.47 303.92 188.66 338.37 226.25 346.67 C 252.35 352.45 280.89 350.52 304.67 337.64 C 320.60 329.26 333.45 315.57 341.60 299.59 C 354.02 275.60 356.88 246.80 349.34 220.85 C 345.06 205.82 336.77 192.05 325.64 181.10 C 329.63 176.88 333.54 172.59 337.61 168.43 C 345.46 161.22 352.99 153.64 360.37 145.95 C 361.36 145.00 362.35 144.05 363.35 143.10 C 377.94 160.91 389.40 181.12 398.92 202.01 C 403.89 222.56 406.18 243.89 404.90 265.03 C 403.20 294.72 391.64 323.78 372.38 346.46 C 365.07 355.07 356.89 362.93 348.08 370.01 C 337.64 378.28 326.57 386.04 314.08 390.92 C 297.71 397.37 280.35 400.89 263.01 403.51 C 200.46 407.32 138.36 367.87 113.66 310.55 C 108.14 297.40 104.25 283.40 103.63 269.11 C 102.57 248.84 102.40 228.18 107.60 208.41 C 109.35 201.15 112.79 194.49 115.85 187.73 C 124.30 169.73 134.79 152.23 149.74 138.85 C 154.87 134.07 160.89 130.44 166.55 126.36 C 184.82 113.49 205.99 104.79 228.02 101.05 C 229.72 83.86 229.14 66.54 227.51 49.37 C 198.72 56.08 169.99 64.92 144.59 80.40 C 141.87 78.46 139.27 76.37 136.72 74.21 C 138.50 76.57 140.29 78.92 141.98 81.35 C 139.26 83.89 136.08 85.86 133.20 88.20 C 104.40 110.48 79.70 139.35 66.88 173.77 C 55.90 203.72 48.79 235.87 52.10 267.90 C 52.76 275.06 54.54 282.05 55.33 289.19 C 59.75 319.77 74.21 347.96 92.23 372.70 C 98.61 381.26 105.06 389.84 112.43 397.57 C 138.37 421.05 169.65 439.39 203.97 447.18 C 213.96 449.17 223.89 451.61 234.05 452.66 C 286.19 458.41 339.69 441.67 381.01 409.78 C 399.39 396.91 413.00 378.56 424.64 359.65 C 430.60 349.78 436.89 340.03 441.29 329.32 C 451.39 305.49 455.05 279.57 457.08 253.94 C 457.61 247.62 456.85 241.29 456.22 235.01 C 451.02 187.95 430.68 142.69 398.91 107.58 C 408.88 94.60 421.81 84.39 433.31 72.86 C 466.46 102.10 487.18 143.00 498.61 185.19 C 502.39 198.58 504.82 212.28 507.34 225.93 C 505.97 227.56 506.77 229.74 508.00 231.16 L 508.00 268.02 C 507.79 268.55 507.38 269.63 507.17 270.17 C 501.72 300.07 498.22 331.25 483.20 358.26 C 453.88 424.30 393.80 476.09 323.80 494.37 C 298.48 499.38 272.97 505.13 247.00 504.51 C 235.46 504.36 224.13 502.02 212.80 500.10 C 188.72 495.78 164.54 490.22 142.41 479.49 C 132.52 474.83 123.45 468.68 114.38 462.64 C 100.24 453.03 86.48 442.75 74.08 430.94 C 48.70 405.64 30.93 373.86 16.86 341.19 C 7.93 317.86 5.09 292.85 0.83 268.39 C 2.03 267.19 1.31 265.40 0.00 264.67 L 0.00 229.93 C 1.40 229.36 1.66 228.38 0.76 226.99 C 6.24 194.15 14.49 161.47 29.07 131.40 C 30.99 130.94 32.91 130.49 34.83 130.04 C 33.65 128.80 32.47 127.57 31.29 126.33 C 50.57 96.44 74.36 69.40 102.02 47.01 C 133.67 23.37 171.46 9.30 209.77 0.82 C 210.31 0.61 211.39 0.20 211.93 0.00 Z" />
</g>
<g id="#4e9fa4d2">
<path fill="#4e9fa4" opacity="0.82" d=" M 136.72 74.21 C 139.27 76.37 141.87 78.46 144.59 80.40 C 144.05 80.40 142.97 80.42 142.43 80.42 C 142.31 80.65 142.09 81.12 141.98 81.35 C 140.29 78.92 138.50 76.57 136.72 74.21 Z" />
</g>
<g id="#1c6c719e">
<path fill="#1c6c71" opacity="0.62" d=" M 337.61 168.43 C 344.69 160.46 352.38 153.01 360.37 145.95 C 352.99 153.64 345.46 161.22 337.61 168.43 Z" />
</g>
<g id="#7dcdd2ff">
<path fill="#7dcdd2" opacity="1.00" d=" M 507.34 225.93 L 508.00 226.37 L 508.00 231.16 C 506.77 229.74 505.97 227.56 507.34 225.93 Z" />
</g>
<g id="#9ad8dcff">
<path fill="#9ad8dc" opacity="1.00" d=" M 0.00 227.32 L 0.76 226.99 C 1.66 228.38 1.40 229.36 0.00 229.93 L 0.00 227.32 Z" />
</g>
<g id="#5aa1a5cd">
<path fill="#5aa1a5" opacity="0.80" d=" M 0.00 264.67 C 1.31 265.40 2.03 267.19 0.83 268.39 L 0.00 268.23 L 0.00 264.67 Z" />
</g>
<g id="#90d4d8ff">
<path fill="#90d4d8" opacity="1.00" d=" M 507.17 270.17 C 507.38 269.63 507.79 268.55 508.00 268.02 L 508.00 269.82 L 507.17 270.17 Z" />
</g>
</svg>
