<?xml version="1.0" encoding="UTF-8" ?>
<!DOCTYPE svg PUBLIC "-//W3C//DTD SVG 1.1//EN" "http://www.w3.org/Graphics/SVG/1.1/DTD/svg11.dtd">
<svg width="128pt" height="128pt" viewBox="0 0 128 128" version="1.1" xmlns="http://www.w3.org/2000/svg">
<g id="#019ca8ff">
<path fill="#019ca8" opacity="1.00" d=" M 63.58 0.00 L 64.64 0.00 C 80.88 0.24 96.14 12.72 98.72 28.90 C 98.74 32.72 102.35 35.21 102.42 38.99 C 102.62 44.67 102.51 50.36 102.48 56.05 C 102.64 58.81 101.28 61.22 99.65 63.32 C 99.44 67.40 99.35 71.64 97.52 75.38 C 94.15 82.92 86.27 88.17 77.98 88.21 C 73.02 88.24 68.01 88.65 63.09 87.93 C 59.46 86.90 59.29 81.14 62.82 79.84 C 70.24 78.10 79.07 81.75 85.52 76.49 C 89.70 73.47 90.99 68.16 90.72 63.25 C 90.01 62.44 89.30 61.62 88.59 60.81 C 86.38 65.24 84.75 70.83 79.89 73.05 C 74.00 74.20 67.92 72.75 62.02 73.88 C 59.36 74.39 57.49 76.48 55.62 78.26 C 48.15 75.07 42.46 68.66 39.58 61.13 C 37.05 63.95 32.92 65.85 29.36 63.64 C 24.41 61.01 25.62 54.64 25.49 50.00 C 25.92 44.58 24.13 38.39 27.64 33.68 C 29.66 30.46 29.28 26.40 30.87 22.98 C 35.73 9.55 49.36 0.21 63.58 0.00 M 48.15 14.22 C 42.15 18.56 38.39 25.54 37.48 32.84 C 37.98 33.50 39.00 34.81 39.51 35.46 C 42.28 28.85 46.88 22.74 53.43 19.52 C 60.55 15.77 69.60 16.19 76.38 20.52 C 81.98 23.93 85.99 29.44 88.45 35.45 C 89.14 34.58 89.83 33.72 90.53 32.86 C 89.50 24.06 84.09 15.85 76.10 11.89 C 67.34 7.27 56.03 8.22 48.15 14.22 Z" />
<path fill="#019ca8" opacity="1.00" d=" M 13.59 96.61 C 19.39 87.20 29.13 80.64 39.81 78.07 C 44.04 82.20 49.08 85.42 54.67 87.37 C 56.01 89.33 57.26 91.53 59.40 92.73 C 62.26 94.47 65.75 94.17 68.96 94.25 C 75.60 94.19 82.58 94.64 88.75 91.73 C 93.32 89.85 97.00 86.43 100.17 82.72 C 113.93 90.78 122.56 107.00 120.69 122.94 C 120.17 125.88 117.39 127.71 114.57 128.00 L 13.47 128.00 C 10.31 127.76 7.35 125.39 7.16 122.10 C 6.63 113.23 8.77 104.12 13.59 96.61 Z" />
</g>
</svg>
