<?xml version="1.0" encoding="UTF-8" ?>
<!DOCTYPE svg PUBLIC "-//W3C//DTD SVG 1.1//EN" "http://www.w3.org/Graphics/SVG/1.1/DTD/svg11.dtd">
<svg width="128pt" height="128pt" viewBox="0 0 128 128" version="1.1" xmlns="http://www.w3.org/2000/svg">
<g id="#019ca8ff">
<path fill="#019ca8" opacity="1.00" d=" M 55.68 6.85 C 67.46 2.77 81.23 5.27 90.83 13.23 C 97.86 18.77 102.44 27.00 104.12 35.74 C 117.80 39.42 127.77 52.72 128.00 66.80 L 128.00 67.60 C 127.75 76.03 124.39 84.35 118.39 90.32 C 112.38 96.57 103.71 100.07 95.05 99.83 C 89.39 99.71 83.71 100.02 78.06 99.69 C 74.59 99.56 73.92 94.19 77.11 93.02 C 85.82 91.82 94.88 94.09 103.42 91.52 C 113.32 88.30 120.57 78.47 120.82 68.07 C 121.32 57.04 113.85 45.89 103.09 42.89 C 101.46 42.30 99.60 42.04 98.28 40.84 C 97.21 39.06 97.08 36.91 96.58 34.94 C 94.46 24.80 86.38 16.30 76.49 13.33 C 66.19 10.01 54.22 12.88 46.59 20.56 C 43.29 23.53 41.59 27.73 38.70 31.03 C 35.49 30.82 32.28 29.98 29.06 30.36 C 23.89 31.48 19.55 35.83 18.54 41.03 C 18.17 44.14 18.97 47.23 19.29 50.31 C 15.58 53.93 10.84 56.83 8.98 61.95 C 3.15 74.36 12.06 90.83 25.70 92.53 C 33.78 93.10 41.91 92.36 49.99 92.86 C 53.52 93.07 54.00 98.68 50.63 99.59 C 46.46 100.18 42.23 99.72 38.04 99.84 C 31.67 99.72 25.04 100.55 18.97 98.12 C 7.90 93.97 0.34 82.63 0.00 70.90 L 0.00 70.24 C 0.24 61.40 4.56 52.98 11.56 47.59 C 10.50 40.99 12.28 33.84 17.14 29.10 C 21.80 24.24 28.84 22.40 35.40 23.34 C 40.00 15.72 47.18 9.65 55.68 6.85 Z" />
<path fill="#019ca8" opacity="1.00" d=" M 61.24 50.15 C 62.64 48.42 65.39 48.46 66.79 50.17 C 72.99 56.33 79.23 62.48 85.32 68.75 C 88.31 71.32 84.38 76.45 81.13 74.22 C 76.36 70.08 72.15 65.31 67.56 60.95 C 67.50 80.58 67.68 100.22 67.48 119.84 C 67.51 122.69 63.63 124.21 61.65 122.22 C 60.44 121.20 60.50 119.51 60.46 118.08 C 60.47 99.04 60.47 79.99 60.46 60.95 C 56.15 65.16 51.99 69.53 47.62 73.68 C 46.12 75.40 43.09 74.83 42.11 72.85 C 41.11 71.29 41.92 69.33 43.19 68.20 C 49.19 62.17 55.18 56.13 61.24 50.15 Z" />
</g>
</svg>
