<?xml version="1.0" encoding="UTF-8" ?>
<!DOCTYPE svg PUBLIC "-//W3C//DTD SVG 1.1//EN" "http://www.w3.org/Graphics/SVG/1.1/DTD/svg11.dtd">
<svg width="128pt" height="128pt" viewBox="0 0 128 128" version="1.1" xmlns="http://www.w3.org/2000/svg">
<g id="#019ca8ff">
<path fill="#019ca8" opacity="1.00" d=" M 12.78 0.00 L 113.29 0.00 C 117.09 0.36 121.57 -0.24 124.65 2.51 C 126.77 4.15 127.60 6.83 128.00 9.37 L 128.00 11.06 C 127.89 15.25 124.87 18.37 121.28 20.05 C 121.21 45.40 121.26 70.76 121.26 96.11 C 121.15 97.73 121.36 99.87 119.65 100.78 C 118.19 101.26 116.62 101.20 115.10 101.25 C 99.13 101.18 83.17 101.23 67.21 101.22 C 67.22 103.36 67.22 105.50 67.23 107.64 C 69.63 109.16 72.30 110.77 73.33 113.59 C 75.88 119.17 72.10 126.47 66.00 127.42 C 59.48 129.06 52.87 122.77 53.96 116.19 C 54.29 112.20 57.51 109.46 60.77 107.63 C 60.78 105.49 60.78 103.36 60.79 101.22 C 44.85 101.23 28.91 101.18 12.97 101.25 C 11.41 101.20 9.79 101.28 8.30 100.75 C 6.64 99.83 6.85 97.73 6.74 96.14 C 6.74 70.77 6.79 45.41 6.72 20.04 C 3.17 18.39 0.19 15.33 0.00 11.21 L 0.00 9.39 C 0.40 6.85 1.21 4.17 3.33 2.53 C 5.88 0.19 9.57 0.34 12.78 0.00 M 7.12 7.27 C 6.59 9.09 6.03 11.12 7.20 12.83 C 8.29 13.58 9.62 13.77 10.91 13.76 C 46.28 13.75 81.66 13.75 117.03 13.76 C 118.34 13.77 119.71 13.59 120.81 12.82 C 121.97 11.10 121.40 9.08 120.89 7.27 C 116.99 6.36 112.98 6.74 109.03 6.69 C 76.68 6.68 44.33 6.71 11.99 6.67 C 10.34 6.67 8.72 6.97 7.12 7.27 M 13.19 20.19 C 13.19 45.05 13.19 69.92 13.19 94.78 C 47.06 94.78 80.94 94.78 114.81 94.78 C 114.81 69.92 114.81 45.05 114.81 20.19 C 80.94 20.19 47.06 20.19 13.19 20.19 M 62.31 114.17 C 60.30 115.21 59.56 118.09 61.07 119.85 C 62.74 122.27 66.95 121.43 67.59 118.57 C 68.59 115.60 65.07 112.68 62.31 114.17 Z" />
<path fill="#019ca8" opacity="1.00" d=" M 90.72 35.73 C 94.26 34.26 97.62 32.12 101.53 31.82 C 104.76 36.18 106.43 41.44 108.70 46.33 C 110.44 49.02 107.15 52.42 104.41 50.78 C 102.37 48.92 101.70 46.09 100.49 43.69 C 96.29 52.83 92.23 62.03 87.95 71.13 C 87.30 72.92 85.02 73.83 83.40 72.72 C 77.12 68.83 71.10 64.52 64.89 60.50 C 60.12 67.06 56.46 74.49 50.87 80.39 C 45.77 79.10 41.39 76.07 36.64 73.94 C 32.24 78.16 28.21 82.77 23.59 86.74 C 21.00 88.57 17.43 84.95 19.33 82.40 C 23.01 78.07 27.36 74.36 31.24 70.21 C 32.92 68.71 34.82 65.97 37.40 67.21 C 41.34 68.87 45.04 71.04 48.90 72.87 C 52.97 66.88 56.86 60.77 60.99 54.82 C 62.11 52.99 64.51 52.35 66.27 53.73 C 72.13 57.45 77.81 61.45 83.63 65.24 C 87.31 57.18 90.97 49.10 94.66 41.03 C 92.16 42.08 89.77 43.55 87.07 44.05 C 84.48 44.06 82.97 40.58 84.81 38.73 C 86.57 37.37 88.72 36.66 90.72 35.73 Z" />
</g>
</svg>
