<?xml version="1.0" encoding="UTF-8" ?>
<!DOCTYPE svg PUBLIC "-//W3C//DTD SVG 1.1//EN" "http://www.w3.org/Graphics/SVG/1.1/DTD/svg11.dtd">
<svg width="142pt" height="91pt" viewBox="0 0 142 91" version="1.1" xmlns="http://www.w3.org/2000/svg">
<g id="#019ca8ff">
<path fill="#019ca8" opacity="1.00" d=" M 0.00 0.00 L 13.14 0.00 C 13.02 30.01 13.39 60.03 12.84 90.04 C 8.56 90.16 4.28 90.14 0.00 89.95 L 0.00 0.00 Z" />
<path fill="#019ca8" opacity="1.00" d=" M 25.93 0.00 L 38.83 0.00 C 38.88 23.33 38.85 46.67 38.84 70.00 C 38.77 76.64 39.60 83.28 38.87 89.90 C 34.67 90.27 30.45 90.28 26.24 90.07 C 26.11 87.72 25.93 85.37 25.90 83.01 C 25.96 55.34 25.90 27.67 25.93 0.00 Z" />
<path fill="#019ca8" opacity="1.00" d=" M 56.43 0.00 L 135.68 0.00 C 138.54 1.19 141.21 3.13 142.00 6.29 L 142.00 84.87 C 140.71 86.58 139.64 88.64 137.67 89.68 C 132.83 90.53 127.88 89.84 123.00 89.92 C 101.98 89.94 80.96 89.87 59.94 89.96 C 57.75 89.86 55.18 90.24 53.55 88.43 C 51.66 86.96 52.17 84.21 51.88 82.10 C 52.00 61.40 51.93 40.70 51.93 19.99 C 51.99 14.79 51.43 9.50 52.48 4.36 C 52.85 2.26 54.96 1.26 56.43 0.00 M 92.04 70.38 C 87.49 66.52 84.75 61.03 80.36 57.01 C 75.44 63.77 70.41 70.47 64.96 76.82 C 79.97 76.94 94.99 76.74 110.00 76.92 C 116.04 77.20 122.09 77.27 128.12 76.76 C 126.04 73.60 123.76 70.58 121.33 67.69 C 116.74 62.18 113.03 55.97 108.09 50.74 C 102.39 57.00 97.95 64.31 92.04 70.38 Z" />
</g>
<g id="#fdfcfcff">
<path fill="#fdfcfc" opacity="1.00" d=" M 13.14 0.00 L 25.93 0.00 C 25.90 27.67 25.96 55.34 25.90 83.01 C 25.93 85.37 26.11 87.72 26.24 90.07 C 30.45 90.28 34.67 90.27 38.87 89.90 C 39.60 83.28 38.77 76.64 38.84 70.00 C 38.85 46.67 38.88 23.33 38.83 0.00 L 56.43 0.00 C 54.96 1.26 52.85 2.26 52.48 4.36 C 51.43 9.50 51.99 14.79 51.93 19.99 C 51.93 40.70 52.00 61.40 51.88 82.10 C 52.17 84.21 51.66 86.96 53.55 88.43 C 55.18 90.24 57.75 89.86 59.94 89.96 C 80.96 89.87 101.98 89.94 123.00 89.92 C 127.88 89.84 132.83 90.53 137.67 89.68 C 139.64 88.64 140.71 86.58 142.00 84.87 L 142.00 91.00 L 0.00 91.00 L 0.00 89.95 C 4.28 90.14 8.56 90.16 12.84 90.04 C 13.39 60.03 13.02 30.01 13.14 0.00 Z" />
<path fill="#fdfcfc" opacity="1.00" d=" M 135.68 0.00 L 142.00 0.00 L 142.00 6.29 C 141.21 3.13 138.54 1.19 135.68 0.00 Z" />
<path fill="#fdfcfc" opacity="1.00" d=" M 92.04 70.38 C 97.95 64.31 102.39 57.00 108.09 50.74 C 113.03 55.97 116.74 62.18 121.33 67.69 C 123.76 70.58 126.04 73.60 128.12 76.76 C 122.09 77.27 116.04 77.20 110.00 76.92 C 94.99 76.74 79.97 76.94 64.96 76.82 C 70.41 70.47 75.44 63.77 80.36 57.01 C 84.75 61.03 87.49 66.52 92.04 70.38 Z" />
</g>
</svg>
